<svg width="300" height="113" viewBox="0 0 300 113" fill="none" xmlns="http://www.w3.org/2000/svg">
<rect x="94.5" y="1.28125" width="111" height="111" rx="55.5" fill="#EDFAF9"/>
<g clip-path="url(#clip0_2_553)">
<g clip-path="url(#clip1_2_553)">
<path d="M165.4 68.648C165.4 69.6236 164.609 70.4147 163.633 70.4147C162.657 70.4147 161.866 69.6236 161.866 68.648C161.866 67.6724 162.657 66.8813 163.633 66.8813C164.609 66.8813 165.4 67.6724 165.4 68.648Z" fill="#21E4C1"/>
<path d="M170.7 59.8145H169.817V55.3978C169.815 53.9348 168.63 52.7495 167.167 52.7478H128.3C126.837 52.7495 125.652 53.9348 125.65 55.3978V80.1311C125.652 81.5942 126.837 82.7794 128.3 82.7811H167.167C168.63 82.7794 169.815 81.5942 169.817 80.1311V73.9478H170.7C172.163 73.9461 173.348 72.7608 173.35 71.2978V62.4645C173.348 61.0014 172.163 59.8162 170.7 59.8145ZM168.05 80.1311C168.049 80.6185 167.654 81.014 167.167 81.0145H128.3C127.813 81.014 127.417 80.6185 127.417 80.1311V55.3978C127.417 54.9104 127.813 54.5149 128.3 54.5145H167.167C167.654 54.5149 168.049 54.9104 168.05 55.3978V63.3478H160.983C159.52 63.3495 158.335 64.5348 158.333 65.9978V71.2978C158.335 72.7608 159.52 73.9461 160.983 73.9478H168.05V80.1311ZM171.583 71.2978C171.583 71.7852 171.187 72.1807 170.7 72.1811H160.983C160.496 72.1807 160.1 71.7852 160.1 71.2978V65.9978C160.1 65.5104 160.496 65.1149 160.983 65.1145H171.583V71.2978ZM169.817 63.3478V61.5811H170.7C171.187 61.5816 171.583 61.9771 171.583 62.4645V63.3478H169.817Z" fill="#21E4C1"/>
<path d="M151.267 36.7776C153.974 36.3825 156.101 34.2557 156.496 31.5479H160.17C160.565 34.2557 162.692 36.3825 165.4 36.7776V50.9813H167.167V32.4313C167.165 30.9682 165.98 29.783 164.517 29.7812H152.15C150.687 29.783 149.502 30.9682 149.5 32.4313V50.9813H151.267V36.7776ZM164.517 31.5479C165.004 31.5483 165.4 31.9439 165.4 32.4313V34.9924C163.667 34.6353 162.313 33.2809 161.956 31.5479H164.517ZM151.267 32.4313C151.267 31.9439 151.663 31.5483 152.15 31.5479H154.711C154.354 33.2809 153 34.6353 151.267 34.9924V32.4313Z" fill="#21E4C1"/>
<path d="M153.033 43.9145C153.033 46.8414 155.406 49.2145 158.333 49.2145C161.26 49.2145 163.633 46.8414 163.633 43.9145C163.633 40.9876 161.26 38.6145 158.333 38.6145C155.408 38.6175 153.036 40.9889 153.033 43.9145ZM161.867 43.9145C161.867 45.8658 160.284 47.4478 158.333 47.4478C156.382 47.4478 154.8 45.8658 154.8 43.9145C154.8 41.9632 156.382 40.3812 158.333 40.3812C160.284 40.3833 161.864 41.9641 161.867 43.9145Z" fill="#21E4C1"/>
<path d="M140.667 42.0777C143.374 41.6826 145.501 39.5558 145.896 36.848H147.733V35.0813H141.55C140.087 35.083 138.902 36.2683 138.9 37.7313V50.9813H140.667V42.0777ZM140.667 37.7313C140.667 37.2439 141.063 36.8484 141.55 36.848H144.111C143.754 38.581 142.4 39.9353 140.667 40.2924V37.7313Z" fill="#21E4C1"/>
<path d="M130.066 47.3777C132.774 46.9826 134.901 44.8558 135.296 42.148H137.133V40.3813H130.95C129.487 40.3831 128.302 41.5683 128.3 43.0313V50.9813H130.066V47.3777ZM130.066 43.0313C130.067 42.544 130.462 42.1484 130.95 42.148H133.511C133.154 43.881 131.799 45.2354 130.066 45.5925V43.0313Z" fill="#21E4C1"/>
<path d="M142.433 50.9812H144.2C144.202 49.0307 145.783 47.45 147.733 47.4478V45.6812C144.808 45.6842 142.436 48.0555 142.433 50.9812Z" fill="#21E4C1"/>
</g>
</g>
<rect x="94.5" y="1.28125" width="111" height="111" rx="55.5" stroke="#DFF2F2"/>
<defs>
<clipPath id="clip0_2_553">
<rect width="53" height="53" fill="white" transform="translate(123 29.7812)"/>
</clipPath>
<clipPath id="clip1_2_553">
<rect width="53" height="53" fill="white" transform="translate(123 29.7812)"/>
</clipPath>
</defs>
</svg>
