<svg width="300" height="113" viewBox="0 0 300 113" fill="none" xmlns="http://www.w3.org/2000/svg">
<rect x="94.5" y="1.28125" width="111" height="111" rx="55.5" fill="#EDFAF9"/>
<g clip-path="url(#clip0_2_572)">
<g clip-path="url(#clip1_2_572)">
<path d="M127.141 82.7812H134.519C136.803 82.7812 138.66 80.9244 138.66 78.6406V71.1633C138.66 68.8795 136.803 67.0227 134.519 67.0227H131.658V60.823H148.992V67.0226H145.812C143.528 67.0226 141.672 68.8795 141.672 71.1632V78.6405C141.672 80.9244 143.529 82.7811 145.812 82.7811H153.189C155.473 82.7811 157.33 80.9243 157.33 78.6405V71.1632C157.33 68.8793 155.473 67.0226 153.189 67.0226H150.648V60.823H167.343V67.0226H164.482C162.198 67.0226 160.342 68.8795 160.342 71.1632V78.6405C160.342 80.9244 162.198 82.7811 164.482 82.7811H171.859C174.143 82.7812 176 80.9244 176 78.6406V71.1633C176 68.8795 174.143 67.0227 171.859 67.0227H169V59.1668H150.648V52.9117C156.62 52.3425 161.302 47.3866 161.302 41.3752C161.302 34.9829 156.009 29.7812 149.5 29.7812C142.991 29.7812 137.698 34.9829 137.698 41.3751C137.698 47.5988 142.72 52.6795 148.992 52.9435V59.1668H130.002V67.0227H127.141C124.857 67.0226 123 68.8795 123 71.1632V78.6405C123 80.9244 124.857 82.7812 127.141 82.7812ZM155.674 71.1632V78.6405C155.674 80.0105 154.559 81.1249 153.189 81.1249H145.812C144.442 81.1249 143.328 80.0105 143.328 78.6405V71.1632C143.328 69.7932 144.442 68.6788 145.812 68.6788H153.189C154.559 68.6788 155.674 69.7933 155.674 71.1632ZM174.344 71.1632V78.6405C174.344 80.0105 173.229 81.1249 171.859 81.1249H164.482C163.112 81.1249 161.998 80.0105 161.998 78.6405V71.1632C161.998 69.7932 163.112 68.6788 164.482 68.6788H171.859C173.229 68.6788 174.344 69.7933 174.344 71.1632ZM139.354 41.3751C139.354 35.8952 143.905 31.4376 149.5 31.4376C155.095 31.4376 159.646 35.8952 159.646 41.3751C159.646 46.8549 155.095 51.3126 149.5 51.3126C143.905 51.3126 139.354 46.8548 139.354 41.3751ZM124.656 71.1632C124.656 69.7932 125.771 68.6788 127.141 68.6788H134.519C135.889 68.6788 137.004 69.7932 137.004 71.1632V78.6405C137.004 80.0105 135.889 81.1249 134.519 81.1249H127.141C125.771 81.1249 124.656 80.0105 124.656 78.6405V71.1632H124.656Z" fill="#21E4C1"/>
<path d="M150.056 49.3179V47.306C152.029 46.9767 153.082 45.5447 153.082 44.0163C153.082 42.2944 152.086 41.2878 150.113 40.4755C148.447 39.7789 147.738 39.2758 147.738 38.2693C147.738 37.4951 148.294 36.6054 149.769 36.6054C150.995 36.6054 151.78 37.0309 152.182 37.2634L152.661 35.9862C152.106 35.6569 151.32 35.3476 150.171 35.3088V33.4319H148.983V35.3863C147.221 35.6762 146.091 36.8953 146.091 38.5017C146.091 40.185 147.298 41.0754 149.252 41.8489C150.669 42.4294 151.416 43.0873 151.416 44.1521C151.416 45.2549 150.496 46.0483 149.137 46.0483C148.063 46.0483 147.068 45.6803 146.378 45.2161L145.918 46.5125C146.589 46.9961 147.738 47.3448 148.849 47.3635V49.3179H150.056Z" fill="#21E4C1"/>
</g>
</g>
<rect x="94.5" y="1.28125" width="111" height="111" rx="55.5" stroke="#DFF2F2"/>
<defs>
<clipPath id="clip0_2_572">
<rect width="53" height="53" fill="white" transform="translate(123 29.7812)"/>
</clipPath>
<clipPath id="clip1_2_572">
<rect width="53" height="53" fill="white" transform="translate(123 29.7812)"/>
</clipPath>
</defs>
</svg>
