<svg width="300" height="113" viewBox="0 0 300 113" fill="none" xmlns="http://www.w3.org/2000/svg">
<rect x="94.5" y="1.0625" width="111" height="111" rx="55.5" fill="#EDFAF9"/>
<g clip-path="url(#clip0_1_103)">
<g clip-path="url(#clip1_1_103)">
<path d="M123 29.5625V82.5625H176V29.5625H123ZM174.233 80.7958H124.767V31.3292H174.233V80.7958Z" fill="#21E4C1"/>
<path d="M166.025 40.787L134.225 72.587L132.975 71.338L164.775 39.538L166.025 40.787Z" fill="#21E4C1"/>
<path d="M138.017 49.8792C140.94 49.8792 143.317 47.5021 143.317 44.5792C143.317 41.6562 140.94 39.2792 138.017 39.2792C135.094 39.2792 132.717 41.6562 132.717 44.5792C132.717 47.5021 135.094 49.8792 138.017 49.8792ZM138.017 41.0458C139.965 41.0458 141.55 42.6305 141.55 44.5792C141.55 46.5278 139.965 48.1125 138.017 48.1125C136.068 48.1125 134.483 46.5278 134.483 44.5792C134.483 42.6305 136.068 41.0458 138.017 41.0458Z" fill="#21E4C1"/>
<path d="M160.983 62.2458C158.06 62.2458 155.683 64.6229 155.683 67.5459C155.683 70.4688 158.06 72.8459 160.983 72.8459C163.906 72.8459 166.283 70.4688 166.283 67.5459C166.283 64.6229 163.906 62.2458 160.983 62.2458ZM160.983 71.0792C159.035 71.0792 157.45 69.4945 157.45 67.5459C157.45 65.5972 159.035 64.0125 160.983 64.0125C162.932 64.0125 164.517 65.5972 164.517 67.5459C164.517 69.4945 162.932 71.0792 160.983 71.0792Z" fill="#21E4C1"/>
</g>
</g>
<rect x="94.5" y="1.0625" width="111" height="111" rx="55.5" stroke="#DFF2F2"/>
<defs>
<clipPath id="clip0_1_103">
<rect width="53" height="53" fill="white" transform="translate(123 29.5625)"/>
</clipPath>
<clipPath id="clip1_1_103">
<rect width="53" height="53" fill="white" transform="translate(123 29.5625)"/>
</clipPath>
</defs>
</svg>
