<svg width="300" height="113" viewBox="0 0 300 113" fill="none" xmlns="http://www.w3.org/2000/svg">
<rect x="94.5" y="1.0625" width="111" height="111" rx="55.5" fill="#EDFAF9"/>
<g clip-path="url(#clip0_1_134)">
<g clip-path="url(#clip1_1_134)">
<path d="M162.201 33.6746C161.776 31.592 159.931 30.0194 157.724 30.0194C157.219 30.0194 156.81 30.4279 156.81 30.9332C156.81 31.4385 157.219 31.847 157.724 31.847C159.236 31.847 160.466 33.077 160.466 34.5884C160.466 36.0998 159.236 37.3298 157.724 37.3298C157.219 37.3298 156.81 37.7382 156.81 38.2435C156.81 38.7489 157.219 39.1573 157.724 39.1573C159.93 39.1573 161.776 37.5847 162.201 35.5022H174.172V43.7263H124.828V35.5022H137.621H140.362C140.867 35.5022 141.276 35.0937 141.276 34.5884C141.276 34.083 140.867 33.6746 140.362 33.6746H138.703C139.081 32.6128 140.086 31.847 141.276 31.847C142.787 31.847 144.017 33.077 144.017 34.5884C144.017 36.0998 142.787 37.3298 141.276 37.3298C140.771 37.3298 140.362 37.7382 140.362 38.2435C140.362 38.7489 140.771 39.1573 141.276 39.1573C143.795 39.1573 145.845 37.1077 145.845 34.5884C145.845 32.069 143.795 30.0194 141.276 30.0194C139.07 30.0194 137.224 31.592 136.799 33.6746H123V45.5539V82.1056H176V45.5539V33.6746H162.201ZM174.172 80.278H124.828V45.5539H174.172V80.278Z" fill="#21E4C1"/>
<path d="M146.759 31.847C148.27 31.847 149.5 33.077 149.5 34.5884C149.5 36.0998 148.27 37.3298 146.759 37.3298C146.253 37.3298 145.845 37.7382 145.845 38.2435C145.845 38.7489 146.253 39.1573 146.759 39.1573C149.278 39.1573 151.328 37.1077 151.328 34.5884C151.328 32.069 149.278 30.0194 146.759 30.0194C146.253 30.0194 145.845 30.4279 145.845 30.9332C145.845 31.4385 146.253 31.847 146.759 31.847Z" fill="#21E4C1"/>
<path d="M152.241 31.847C153.753 31.847 154.983 33.077 154.983 34.5884C154.983 36.0998 153.753 37.3298 152.241 37.3298C151.736 37.3298 151.328 37.7382 151.328 38.2435C151.328 38.7489 151.736 39.1573 152.241 39.1573C154.761 39.1573 156.81 37.1077 156.81 34.5884C156.81 32.069 154.761 30.0194 152.241 30.0194C151.736 30.0194 151.328 30.4279 151.328 30.9332C151.328 31.4385 151.736 31.847 152.241 31.847Z" fill="#21E4C1"/>
<path d="M143.103 52.8642C143.608 52.8642 144.017 52.4551 144.017 51.9504C144.017 51.4457 143.608 51.0366 143.103 51.0366C142.599 51.0366 142.19 51.4457 142.19 51.9504C142.19 52.4551 142.599 52.8642 143.103 52.8642Z" fill="#21E4C1"/>
<path d="M149.5 52.8642C150.005 52.8642 150.414 52.4551 150.414 51.9504C150.414 51.4457 150.005 51.0366 149.5 51.0366C148.995 51.0366 148.586 51.4457 148.586 51.9504C148.586 52.4551 148.995 52.8642 149.5 52.8642Z" fill="#21E4C1"/>
<path d="M155.897 52.8642C156.401 52.8642 156.81 52.4551 156.81 51.9504C156.81 51.4457 156.401 51.0366 155.897 51.0366C155.392 51.0366 154.983 51.4457 154.983 51.9504C154.983 52.4551 155.392 52.8642 155.897 52.8642Z" fill="#21E4C1"/>
<path d="M162.293 52.8642C162.798 52.8642 163.207 52.4551 163.207 51.9504C163.207 51.4457 162.798 51.0366 162.293 51.0366C161.788 51.0366 161.379 51.4457 161.379 51.9504C161.379 52.4551 161.788 52.8642 162.293 52.8642Z" fill="#21E4C1"/>
<path d="M168.69 52.8642C169.194 52.8642 169.603 52.4551 169.603 51.9504C169.603 51.4457 169.194 51.0366 168.69 51.0366C168.185 51.0366 167.776 51.4457 167.776 51.9504C167.776 52.4551 168.185 52.8642 168.69 52.8642Z" fill="#21E4C1"/>
<path d="M130.31 60.1746C130.815 60.1746 131.224 59.7655 131.224 59.2608C131.224 58.7561 130.815 58.347 130.31 58.347C129.806 58.347 129.397 58.7561 129.397 59.2608C129.397 59.7655 129.806 60.1746 130.31 60.1746Z" fill="#21E4C1"/>
<path d="M136.707 60.1746C137.212 60.1746 137.621 59.7655 137.621 59.2608C137.621 58.7561 137.212 58.347 136.707 58.347C136.202 58.347 135.793 58.7561 135.793 59.2608C135.793 59.7655 136.202 60.1746 136.707 60.1746Z" fill="#21E4C1"/>
<path d="M143.103 60.1746C143.608 60.1746 144.017 59.7655 144.017 59.2608C144.017 58.7561 143.608 58.347 143.103 58.347C142.599 58.347 142.19 58.7561 142.19 59.2608C142.19 59.7655 142.599 60.1746 143.103 60.1746Z" fill="#21E4C1"/>
<path d="M149.5 60.1746C150.005 60.1746 150.414 59.7655 150.414 59.2608C150.414 58.7561 150.005 58.347 149.5 58.347C148.995 58.347 148.586 58.7561 148.586 59.2608C148.586 59.7655 148.995 60.1746 149.5 60.1746Z" fill="#21E4C1"/>
<path d="M155.897 60.1746C156.401 60.1746 156.81 59.7655 156.81 59.2608C156.81 58.7561 156.401 58.347 155.897 58.347C155.392 58.347 154.983 58.7561 154.983 59.2608C154.983 59.7655 155.392 60.1746 155.897 60.1746Z" fill="#21E4C1"/>
<path d="M162.293 60.1746C162.798 60.1746 163.207 59.7655 163.207 59.2608C163.207 58.7561 162.798 58.347 162.293 58.347C161.788 58.347 161.379 58.7561 161.379 59.2608C161.379 59.7655 161.788 60.1746 162.293 60.1746Z" fill="#21E4C1"/>
<path d="M168.69 60.1746C169.194 60.1746 169.603 59.7655 169.603 59.2608C169.603 58.7561 169.194 58.347 168.69 58.347C168.185 58.347 167.776 58.7561 167.776 59.2608C167.776 59.7655 168.185 60.1746 168.69 60.1746Z" fill="#21E4C1"/>
<path d="M130.31 66.5711C130.815 66.5711 131.224 66.162 131.224 65.6573C131.224 65.1526 130.815 64.7435 130.31 64.7435C129.806 64.7435 129.397 65.1526 129.397 65.6573C129.397 66.162 129.806 66.5711 130.31 66.5711Z" fill="#21E4C1"/>
<path d="M136.707 66.5711C137.212 66.5711 137.621 66.162 137.621 65.6573C137.621 65.1526 137.212 64.7435 136.707 64.7435C136.202 64.7435 135.793 65.1526 135.793 65.6573C135.793 66.162 136.202 66.5711 136.707 66.5711Z" fill="#21E4C1"/>
<path d="M143.103 66.5711C143.608 66.5711 144.017 66.162 144.017 65.6573C144.017 65.1526 143.608 64.7435 143.103 64.7435C142.599 64.7435 142.19 65.1526 142.19 65.6573C142.19 66.162 142.599 66.5711 143.103 66.5711Z" fill="#21E4C1"/>
<path d="M149.5 66.5711C150.005 66.5711 150.414 66.162 150.414 65.6573C150.414 65.1526 150.005 64.7435 149.5 64.7435C148.995 64.7435 148.586 65.1526 148.586 65.6573C148.586 66.162 148.995 66.5711 149.5 66.5711Z" fill="#21E4C1"/>
<path d="M155.897 66.5711C156.401 66.5711 156.81 66.162 156.81 65.6573C156.81 65.1526 156.401 64.7435 155.897 64.7435C155.392 64.7435 154.983 65.1526 154.983 65.6573C154.983 66.162 155.392 66.5711 155.897 66.5711Z" fill="#21E4C1"/>
<path d="M162.293 66.5711C162.798 66.5711 163.207 66.162 163.207 65.6573C163.207 65.1526 162.798 64.7435 162.293 64.7435C161.788 64.7435 161.379 65.1526 161.379 65.6573C161.379 66.162 161.788 66.5711 162.293 66.5711Z" fill="#21E4C1"/>
<path d="M168.69 66.5711C169.194 66.5711 169.603 66.162 169.603 65.6573C169.603 65.1526 169.194 64.7435 168.69 64.7435C168.185 64.7435 167.776 65.1526 167.776 65.6573C167.776 66.162 168.185 66.5711 168.69 66.5711Z" fill="#21E4C1"/>
<path d="M130.31 73.8815C130.815 73.8815 131.224 73.4724 131.224 72.9677C131.224 72.463 130.815 72.0539 130.31 72.0539C129.806 72.0539 129.397 72.463 129.397 72.9677C129.397 73.4724 129.806 73.8815 130.31 73.8815Z" fill="#21E4C1"/>
<path d="M136.707 73.8815C137.212 73.8815 137.621 73.4724 137.621 72.9677C137.621 72.463 137.212 72.0539 136.707 72.0539C136.202 72.0539 135.793 72.463 135.793 72.9677C135.793 73.4724 136.202 73.8815 136.707 73.8815Z" fill="#21E4C1"/>
<path d="M143.103 73.8815C143.608 73.8815 144.017 73.4724 144.017 72.9677C144.017 72.463 143.608 72.0539 143.103 72.0539C142.599 72.0539 142.19 72.463 142.19 72.9677C142.19 73.4724 142.599 73.8815 143.103 73.8815Z" fill="#21E4C1"/>
<path d="M149.5 73.8815C150.005 73.8815 150.414 73.4724 150.414 72.9677C150.414 72.463 150.005 72.0539 149.5 72.0539C148.995 72.0539 148.586 72.463 148.586 72.9677C148.586 73.4724 148.995 73.8815 149.5 73.8815Z" fill="#21E4C1"/>
<path d="M155.897 73.8815C156.401 73.8815 156.81 73.4724 156.81 72.9677C156.81 72.463 156.401 72.0539 155.897 72.0539C155.392 72.0539 154.983 72.463 154.983 72.9677C154.983 73.4724 155.392 73.8815 155.897 73.8815Z" fill="#21E4C1"/>
</g>
</g>
<rect x="94.5" y="1.0625" width="111" height="111" rx="55.5" stroke="#DFF2F2"/>
<defs>
<clipPath id="clip0_1_134">
<rect width="53" height="53" fill="white" transform="translate(123 29.5625)"/>
</clipPath>
<clipPath id="clip1_1_134">
<rect width="53" height="53" fill="white" transform="translate(123 29.5625)"/>
</clipPath>
</defs>
</svg>
