<svg width="300" height="113" viewBox="0 0 300 113" fill="none" xmlns="http://www.w3.org/2000/svg">
<rect x="94.5" y="1.0625" width="111" height="111" rx="55.5" fill="#EDFAF9"/>
<g clip-path="url(#clip0_1_188)">
<g clip-path="url(#clip1_1_188)">
<path d="M164.902 49.296H175.146C175.618 49.296 176 48.9142 176 48.4423V32.227C176 31.7555 175.618 31.3732 175.146 31.3732H164.902C164.43 31.3732 164.048 31.7555 164.048 32.227V32.7051L147.315 29.7792C145.875 29.5295 144.394 29.6958 143.046 30.259L125.494 37.9204C123.691 38.7078 122.687 40.6525 123.089 42.5788C123.491 44.5051 125.189 45.8857 127.157 45.8865H143.223C143.607 46.3918 144.102 46.8032 144.668 47.0892C141.331 48.8754 139.24 52.3457 139.221 56.1312C139.219 58.6294 140.136 61.0414 141.797 62.9072L134.952 64.4763V63.8197C134.952 63.3483 134.57 62.966 134.098 62.966H123.854C123.382 62.966 123 63.3483 123 63.8197V80.0355C123 80.5069 123.382 80.8892 123.854 80.8892H134.098C134.57 80.8892 134.952 80.5069 134.952 80.0355V79.5573L151.685 82.4828C153.125 82.7342 154.606 82.5679 155.954 82.003L173.506 74.342C175.31 73.5542 176.314 71.6095 175.912 69.6832C175.509 67.7565 173.811 66.3763 171.843 66.3759H155.777C155.388 65.8628 154.885 65.4463 154.308 65.1591C157.067 63.6843 158.999 61.0276 159.551 57.9491C160.104 54.8702 159.217 51.7075 157.144 49.3652L164.048 47.7824V48.439C164.047 48.6661 164.137 48.8842 164.297 49.0451C164.457 49.206 164.674 49.296 164.902 49.296V49.296ZM165.755 33.0807H174.293V47.5886H165.755V33.0807ZM133.245 79.1818H124.707V64.6735H133.245V79.1818ZM154.862 68.2388C155.07 68.9429 154.968 69.7028 154.582 70.3277C153.92 71.4115 152.543 71.8146 151.401 71.2581L145.488 68.3556C145.063 68.148 144.551 68.3235 144.344 68.7478C144.136 69.1722 144.311 69.6845 144.736 69.8921L150.649 72.7951C152.577 73.7451 154.912 73.0673 156.032 71.2327C156.609 70.2906 156.798 69.1618 156.559 68.0834H171.841C173.002 68.0825 174.003 68.8966 174.24 70.033C174.477 71.1693 173.884 72.3157 172.819 72.7788L155.283 80.4323C154.24 80.8692 153.094 80.9968 151.98 80.8004L134.952 77.8232V66.2279L144.826 63.964C146.112 63.6709 147.458 63.816 148.652 64.3762L153.522 66.6677C154.172 66.9766 154.659 67.5481 154.862 68.2388ZM158.003 56.1312C158.017 59.7691 155.711 63.0115 152.27 64.1912L149.38 62.831C147.841 62.109 146.104 61.9222 144.446 62.3003L143.755 62.4583C141.953 60.8488 140.925 58.5469 140.928 56.1312C140.945 52.4866 143.262 49.2502 146.706 48.0592L149.622 49.4311C150.637 49.9071 151.744 50.1539 152.866 50.1535C153.435 50.1535 154.002 50.0893 154.556 49.9622L155.196 49.8163C156.981 51.4303 158.001 53.7243 158.003 56.1312V56.1312ZM154.174 48.2981C152.888 48.5919 151.541 48.4465 150.348 47.8858L145.482 45.5943C144.832 45.2859 144.345 44.7143 144.143 44.0236C143.934 43.3191 144.036 42.5592 144.422 41.9347C145.085 40.8509 146.462 40.4482 147.603 41.0039L153.516 43.9065C153.937 44.1024 154.438 43.9256 154.642 43.5088C154.847 43.0915 154.681 42.5875 154.268 42.3741L148.356 39.4715C146.427 38.5244 144.094 39.2014 142.972 41.0339C142.395 41.9743 142.205 43.1015 142.441 44.1791H127.157C125.996 44.1799 124.994 43.3658 124.757 42.2295C124.521 41.0931 125.114 39.9463 126.179 39.4836L143.717 31.8297C144.76 31.3933 145.906 31.2644 147.019 31.4587L164.048 34.4388V46.0341L154.174 48.2981Z" fill="#21E4C1"/>
<path d="M149.465 52.7163C150.343 52.7163 151.173 53.2286 151.173 53.7664C151.173 54.2378 151.555 54.6201 152.027 54.6201C152.498 54.6201 152.88 54.2378 152.88 53.7664C152.759 52.3874 151.693 51.2794 150.319 51.1068V51.0089C150.319 50.5374 149.937 50.1552 149.465 50.1552C148.994 50.1552 148.612 50.5374 148.612 51.0089V51.1198C147.279 51.3582 146.285 52.4812 146.21 53.8331C146.21 55.5976 147.811 56.3088 149.097 56.8807C150.293 57.4101 151.012 57.7786 151.012 58.4293C151.012 59.0338 150.304 59.5461 149.465 59.5461C148.588 59.5461 147.758 59.0338 147.758 58.496C147.758 58.0246 147.376 57.6423 146.904 57.6423C146.433 57.6423 146.051 58.0246 146.051 58.496C146.171 59.875 147.238 60.9826 148.612 61.1552V61.2536C148.612 61.725 148.994 62.1073 149.465 62.1073C149.937 62.1073 150.319 61.725 150.319 61.2536V61.1427C151.651 60.9038 152.645 59.7808 152.72 58.4293C152.72 56.6219 151.098 55.8999 149.791 55.3208C148.626 54.8019 147.918 54.4434 147.918 53.8331C147.918 53.2224 148.627 52.7163 149.465 52.7163V52.7163Z" fill="#21E4C1"/>
</g>
</g>
<rect x="94.5" y="1.0625" width="111" height="111" rx="55.5" stroke="#DFF2F2"/>
<defs>
<clipPath id="clip0_1_188">
<rect width="53" height="53" fill="white" transform="translate(123 29.5625)"/>
</clipPath>
<clipPath id="clip1_1_188">
<rect width="53" height="53" fill="white" transform="translate(123 29.597)"/>
</clipPath>
</defs>
</svg>
