<svg width="1200" height="62" viewBox="0 0 1200 62" fill="none" xmlns="http://www.w3.org/2000/svg">
<g clip-path="url(#clip0_1_26)">
<g clip-path="url(#clip1_1_26)">
<path fill-rule="evenodd" clip-rule="evenodd" d="M271.007 47.2851H269.447C269.308 47.2851 269.256 47.1564 269.193 47.0307L267.353 43.9363H267.071C266.737 43.9363 265.705 43.8999 265.411 43.8863V47.0307C265.411 47.17 265.308 47.2859 265.169 47.2859H263.889C263.822 47.2851 263.758 47.2579 263.71 47.2101C263.663 47.1624 263.636 47.0979 263.636 47.0307V38.6681C263.636 38.4122 263.788 38.3221 264.045 38.2872C264.709 38.1843 266.137 38.1207 267.071 38.1207C269.037 38.1207 270.853 38.8233 270.853 41.0054V41.1197C270.853 42.4697 270.177 43.2102 269.129 43.616L271.133 47.0307C271.16 47.0686 271.16 47.1049 271.16 47.1337C271.16 47.2193 271.108 47.2851 271.007 47.2851V47.2851ZM269.091 41.0046C269.091 40.0476 268.348 39.6395 267.07 39.6395C266.802 39.6395 265.64 39.6652 265.412 39.6902V42.4553C265.615 42.4689 266.85 42.4939 267.07 42.4939C268.385 42.4939 269.091 42.2426 269.091 41.1197V41.0046V41.0046ZM274.566 44.7722C274.566 45.842 274.606 45.87 275.572 45.87H278.805C278.946 45.87 279.061 45.9836 279.061 46.1244V46.9399C279.061 47.1193 278.996 47.1829 278.806 47.2079C278.397 47.2723 277.564 47.3866 276.045 47.3866C273.925 47.3866 272.802 47.4002 272.802 44.7722V40.7358C272.802 38.107 273.925 38.1214 276.045 38.1214C277.565 38.1214 278.397 38.2373 278.806 38.2994C278.995 38.3228 279.061 38.3887 279.061 38.5689V39.3836C279.061 39.4515 279.034 39.5166 278.986 39.5648C278.938 39.613 278.873 39.6404 278.806 39.641H275.572C274.606 39.641 274.565 39.6683 274.565 40.7358V41.9041H278.653C278.72 41.9047 278.785 41.9318 278.832 41.9795C278.88 42.0272 278.907 42.0918 278.908 42.1593V43.0807C278.908 43.1483 278.881 43.2131 278.833 43.2609C278.785 43.3087 278.72 43.3357 278.653 43.3359H274.566V44.7714V44.7722ZM284.795 47.3866C282.74 47.3866 280.971 46.4932 280.971 43.775V38.4644C280.971 38.3213 281.088 38.2221 281.227 38.2221H282.489C282.631 38.2221 282.745 38.3213 282.745 38.4644V43.7735C282.745 45.2287 283.419 45.9192 284.795 45.9192C286.176 45.9192 286.848 45.2287 286.848 43.7735V38.4644C286.848 38.3213 286.963 38.2221 287.102 38.2221H288.367C288.508 38.2221 288.624 38.3213 288.624 38.4644V43.7735C288.624 46.4916 286.852 47.3851 284.795 47.3851V47.3866ZM297.022 39.7008H294.473V47.03C294.472 47.0979 294.445 47.1627 294.397 47.2106C294.349 47.2584 294.284 47.2855 294.216 47.2859H292.952C292.884 47.2855 292.82 47.2585 292.772 47.2108C292.724 47.163 292.697 47.0983 292.696 47.0307V39.7008H290.146C290.007 39.7008 289.893 39.6122 289.893 39.4729V38.4644C289.893 38.3213 290.007 38.2221 290.146 38.2221H297.022C297.159 38.2221 297.274 38.3213 297.274 38.4644V39.4714C297.274 39.6115 297.16 39.7001 297.022 39.7001V39.7008ZM314.365 47.2859H312.805C312.666 47.2859 312.616 47.1572 312.551 47.0307L310.712 43.9363H310.427C310.097 43.9363 309.063 43.8999 308.767 43.8863V47.0307C308.767 47.17 308.667 47.2859 308.526 47.2859H307.251C307.184 47.2855 307.119 47.2585 307.071 47.2108C307.023 47.163 306.996 47.0983 306.996 47.0307V38.6681C306.996 38.4122 307.147 38.3221 307.403 38.2872C308.066 38.1843 309.497 38.1207 310.428 38.1207C312.395 38.1207 314.21 38.8233 314.21 41.0054V41.1197C314.21 42.4697 313.533 43.2102 312.486 43.616L314.493 47.0307C314.518 47.0686 314.518 47.1049 314.518 47.1337C314.518 47.2193 314.467 47.2851 314.366 47.2851L314.365 47.2859ZM312.449 41.0046C312.449 40.0476 311.705 39.6395 310.427 39.6395C310.16 39.6395 308.997 39.6652 308.767 39.6902V42.4553C308.974 42.4689 310.213 42.4939 310.427 42.4939C311.744 42.4939 312.45 42.2426 312.45 41.1197V41.0046H312.449ZM319.239 47.3942C318.11 47.3942 316.966 47.1988 316.352 47.0572C316.226 47.0322 316.11 46.9437 316.11 46.8036V45.8844C316.11 45.7443 316.226 45.6406 316.352 45.6406H316.378C316.889 45.705 318.085 45.87 319.265 45.87C320.401 45.87 320.749 45.465 320.749 44.7245C320.749 43.7682 318.462 43.239 317.346 42.7801C316.236 42.3205 315.841 41.44 315.841 40.5496C315.841 39.1451 316.972 38.1237 319.348 38.1237C320.565 38.1237 321.679 38.3546 322.113 38.4591C322.242 38.4849 322.343 38.575 322.343 38.7006V39.6448C322.343 39.772 322.255 39.8757 322.125 39.8757H322.1C321.258 39.7985 320.383 39.644 319.273 39.644C318.327 39.644 317.618 39.9742 317.618 40.5496C317.618 40.969 318.099 41.3552 318.667 41.5785C319.232 41.8034 319.977 42.0934 320.824 42.4334C321.902 42.868 322.599 43.5009 322.599 44.7245C322.599 46.0131 321.795 47.3934 319.239 47.3934V47.3942ZM300.354 44.7714C300.354 45.8413 300.392 45.8693 301.361 45.8693H304.595C304.732 45.8693 304.849 45.9828 304.849 46.1237V46.9391C304.849 47.1186 304.784 47.1822 304.595 47.2071C304.184 47.2715 303.354 47.3858 301.834 47.3858C299.711 47.3858 298.589 47.3995 298.589 44.7714V40.7358C298.589 38.107 299.711 38.1214 301.834 38.1214C303.354 38.1214 304.184 38.2373 304.595 38.2994C304.784 38.3228 304.849 38.3887 304.849 38.5689V39.3836C304.849 39.5229 304.732 39.641 304.595 39.641H301.361C300.392 39.641 300.354 39.6683 300.354 40.7358V41.9041H304.439C304.582 41.9041 304.694 42.0215 304.694 42.1593V43.0807C304.694 43.1142 304.688 43.1474 304.675 43.1784C304.662 43.2094 304.643 43.2376 304.62 43.2613C304.596 43.285 304.568 43.3038 304.537 43.3166C304.506 43.3294 304.473 43.336 304.439 43.3359H300.354V44.7714Z" fill="#9C9C9C"/>
<path fill-rule="evenodd" clip-rule="evenodd" d="M244.005 35.9658C243.78 36.2032 243.469 36.3415 243.142 36.3503C242.814 36.3591 242.497 36.2377 242.259 36.0128C242.141 35.9019 242.045 35.7687 241.979 35.6208C241.912 35.473 241.875 35.3133 241.871 35.1512C241.866 34.989 241.894 34.8276 241.952 34.6762C242.01 34.5248 242.098 34.3864 242.21 34.2691C242.321 34.1505 242.454 34.055 242.602 33.988C242.749 33.921 242.909 33.884 243.071 33.8789C243.233 33.8738 243.395 33.9009 243.547 33.9585C243.698 34.0161 243.837 34.1031 243.955 34.2146C244.452 34.684 244.474 35.4623 244.005 35.9666V35.9658ZM231.686 33.1568C231.567 33.0474 231.41 32.9889 231.248 32.994C231.087 32.9991 230.934 33.0674 230.822 33.1841C230.712 33.3015 230.653 33.4578 230.657 33.6187C230.662 33.7797 230.73 33.9324 230.847 34.0434C230.904 34.1011 230.973 34.1467 231.048 34.1774C231.124 34.2081 231.205 34.2234 231.286 34.2223C231.368 34.2212 231.449 34.2038 231.523 34.171C231.598 34.1383 231.665 34.0909 231.721 34.0317C231.777 33.9725 231.821 33.9026 231.85 33.8263C231.878 33.7499 231.891 33.6686 231.888 33.5871C231.885 33.5056 231.865 33.4256 231.83 33.3518C231.795 33.2781 231.746 33.212 231.686 33.1576V33.1568ZM234.774 31.9848C234.628 31.8479 234.435 31.7745 234.235 31.7806C234.035 31.7867 233.846 31.8718 233.709 32.0173C233.573 32.1628 233.499 32.3567 233.505 32.5563C233.511 32.756 233.596 32.945 233.742 33.0819C233.888 33.2187 234.082 33.2921 234.281 33.2859C234.481 33.2798 234.67 33.1945 234.807 33.0489C234.944 32.9033 235.017 32.7094 235.011 32.5096C235.005 32.3099 234.92 32.1209 234.774 31.984V31.9848ZM238.086 31.7432C237.902 31.5703 237.656 31.4774 237.403 31.4847C237.15 31.4921 236.91 31.5992 236.736 31.7826C236.65 31.8742 236.583 31.9818 236.539 32.0992C236.494 32.2166 236.474 32.3416 236.478 32.4671C236.482 32.5925 236.511 32.7159 236.562 32.8302C236.614 32.9445 236.688 33.0476 236.78 33.1334C236.871 33.2204 236.978 33.2885 237.096 33.3338C237.213 33.3791 237.338 33.4007 237.464 33.3973C237.59 33.3939 237.714 33.3657 237.829 33.3142C237.944 33.2626 238.048 33.1889 238.134 33.0971C238.22 33.0053 238.287 32.8974 238.332 32.7795C238.376 32.6616 238.397 32.5362 238.392 32.4103C238.388 32.2844 238.358 32.1607 238.306 32.0462C238.254 31.9317 238.179 31.8287 238.086 31.7432V31.7432ZM241.222 32.5443C241.119 32.4471 240.999 32.371 240.867 32.3206C240.735 32.2701 240.594 32.2463 240.453 32.2504C240.312 32.2544 240.173 32.2864 240.044 32.3444C239.915 32.4023 239.799 32.4852 239.702 32.5882C239.605 32.6909 239.53 32.8116 239.48 32.9435C239.429 33.0754 239.406 33.2158 239.41 33.3569C239.414 33.4979 239.446 33.6367 239.504 33.7655C239.562 33.8942 239.644 34.0102 239.747 34.107C239.849 34.2038 239.97 34.2795 240.102 34.3296C240.234 34.3797 240.374 34.4034 240.516 34.3993C240.657 34.3951 240.795 34.3632 240.924 34.3054C241.053 34.2476 241.169 34.165 241.266 34.0624C241.461 33.8551 241.566 33.5788 241.558 33.2942C241.549 33.0097 241.429 32.74 241.222 32.5443V32.5443ZM229.067 35.2147C228.979 35.1322 228.862 35.0879 228.742 35.0914C228.621 35.095 228.507 35.1461 228.424 35.2337C228.383 35.2767 228.35 35.3275 228.329 35.3831C228.307 35.4387 228.297 35.498 228.299 35.5576C228.3 35.6172 228.314 35.6758 228.338 35.7302C228.363 35.7845 228.398 35.8335 228.441 35.8742C228.53 35.95 228.644 35.9889 228.76 35.9828C228.877 35.9768 228.986 35.9264 229.067 35.8419C229.147 35.7574 229.192 35.6454 229.192 35.5288C229.192 35.4123 229.147 35.3001 229.067 35.2155V35.2147ZM244.886 46.4152C244.826 46.4726 244.779 46.5415 244.747 46.6177C244.715 46.6938 244.699 46.7757 244.7 46.8583C244.701 46.9409 244.718 47.0224 244.751 47.0981C244.784 47.1738 244.832 47.2419 244.893 47.2984C244.953 47.3549 245.024 47.3986 245.101 47.4269C245.179 47.4552 245.261 47.4674 245.344 47.4628C245.426 47.4582 245.507 47.437 245.581 47.4003C245.655 47.3636 245.721 47.3124 245.774 47.2495C245.885 47.1318 245.945 46.9749 245.94 46.8134C245.935 46.6519 245.866 46.4988 245.749 46.3879C245.63 46.2777 245.473 46.2187 245.312 46.2238C245.15 46.229 244.997 46.2977 244.886 46.4152V46.4152ZM245.667 43.2707C245.565 43.3792 245.498 43.5153 245.474 43.662C245.449 43.8086 245.469 43.9591 245.53 44.0946C245.592 44.23 245.692 44.3443 245.818 44.4229C245.944 44.5016 246.09 44.5411 246.239 44.5364C246.388 44.5318 246.531 44.4832 246.652 44.3968C246.773 44.3104 246.866 44.1901 246.919 44.0511C246.971 43.9121 246.981 43.7606 246.948 43.6158C246.915 43.471 246.839 43.3393 246.731 43.2374C246.585 43.1013 246.391 43.0285 246.192 43.0347C245.993 43.0409 245.804 43.1258 245.667 43.2707V43.2707ZM245.426 39.9575C245.337 40.0483 245.267 40.156 245.221 40.2742C245.174 40.3924 245.151 40.5187 245.154 40.6458C245.156 40.7729 245.184 40.8982 245.236 41.0144C245.288 41.1305 245.362 41.2352 245.455 41.3222C245.547 41.4093 245.656 41.477 245.776 41.5214C245.895 41.5657 246.021 41.5859 246.148 41.5806C246.275 41.5754 246.4 41.5448 246.515 41.4908C246.63 41.4367 246.733 41.3602 246.819 41.2658C246.905 41.1747 246.972 41.0675 247.017 40.9503C247.061 40.8331 247.082 40.7083 247.078 40.5829C247.074 40.4576 247.046 40.3343 246.994 40.22C246.942 40.1058 246.869 40.0029 246.777 39.9174C246.592 39.7441 246.346 39.6511 246.093 39.6586C245.84 39.6661 245.6 39.7736 245.426 39.9575V39.9575ZM244.269 36.8888C244.173 36.9915 244.097 37.1123 244.047 37.2443C243.997 37.3763 243.973 37.5168 243.978 37.6579C243.982 37.7989 244.014 37.9378 244.072 38.0665C244.13 38.1952 244.212 38.3112 244.315 38.408C244.418 38.5047 244.539 38.5803 244.671 38.6303C244.803 38.6804 244.943 38.704 245.084 38.6997C245.225 38.6955 245.364 38.6635 245.493 38.6056C245.621 38.5476 245.738 38.4649 245.834 38.3622C246.016 38.1524 246.109 37.8807 246.095 37.6037C246.081 37.3268 245.96 37.066 245.758 36.8759C245.556 36.6858 245.289 36.5811 245.011 36.5836C244.734 36.5862 244.468 36.6958 244.27 36.8895L244.269 36.8888ZM243.206 49.1431C243.165 49.1866 243.134 49.2376 243.113 49.2934C243.092 49.3491 243.082 49.4085 243.084 49.468C243.085 49.5276 243.099 49.5862 243.124 49.6405C243.148 49.6948 243.183 49.7437 243.227 49.7844C243.411 49.954 243.696 49.9487 243.866 49.7625C243.908 49.7197 243.94 49.6692 243.962 49.6137C243.983 49.5583 243.994 49.4991 243.992 49.4397C243.99 49.3802 243.977 49.3217 243.952 49.2675C243.928 49.2134 243.893 49.1646 243.849 49.1242C243.806 49.0829 243.755 49.0506 243.699 49.0292C243.643 49.0078 243.583 48.9976 243.524 48.9994C243.464 49.0012 243.405 49.0148 243.351 49.0395C243.296 49.0641 243.247 49.0994 243.206 49.1431V49.1431ZM230.085 50.7309C230.196 50.6128 230.283 50.4739 230.341 50.3222C230.399 50.1705 230.426 50.009 230.421 49.8467C230.416 49.6845 230.38 49.5248 230.313 49.3767C230.247 49.2286 230.152 49.0951 230.034 48.9838C229.916 48.8724 229.777 48.7854 229.625 48.7277C229.474 48.67 229.312 48.6427 229.15 48.6475C228.987 48.6522 228.828 48.6889 228.68 48.7553C228.532 48.8218 228.398 48.9168 228.287 49.0349C228.062 49.2733 227.941 49.5914 227.95 49.919C227.96 50.2467 228.099 50.5571 228.338 50.782C228.576 51.0069 228.894 51.1278 229.222 51.1183C229.55 51.1087 229.86 50.9693 230.085 50.7309ZM227.408 38.5833C227.463 38.5249 227.506 38.4564 227.535 38.3815C227.563 38.3066 227.576 38.2269 227.574 38.1469C227.571 38.0668 227.553 37.988 227.52 37.915C227.488 37.842 227.441 37.7761 227.382 37.7213C227.324 37.6664 227.255 37.6235 227.181 37.5951C227.106 37.5667 227.026 37.5534 226.946 37.5558C226.866 37.5582 226.787 37.5764 226.714 37.6093C226.641 37.6421 226.575 37.6891 226.52 37.7474C226.465 37.8053 226.422 37.8737 226.393 37.9485C226.365 38.0233 226.351 38.1031 226.354 38.1831C226.356 38.2632 226.375 38.342 226.408 38.4148C226.441 38.4877 226.489 38.5532 226.548 38.6075C226.665 38.7177 226.822 38.7771 226.983 38.7725C227.144 38.768 227.297 38.7 227.408 38.5833V38.5833ZM226.624 41.73C226.692 41.658 226.745 41.5734 226.779 41.481C226.814 41.3886 226.831 41.2902 226.828 41.1914C226.825 41.0927 226.802 40.9955 226.762 40.9054C226.721 40.8154 226.663 40.7342 226.591 40.6665C226.519 40.5989 226.435 40.5461 226.342 40.5111C226.25 40.4761 226.151 40.4597 226.053 40.4628C225.954 40.4658 225.857 40.4883 225.767 40.5289C225.677 40.5695 225.595 40.6275 225.528 40.6995C225.46 40.7711 225.407 40.8553 225.372 40.9474C225.337 41.0394 225.321 41.1375 225.324 41.2359C225.326 41.3344 225.349 41.4313 225.389 41.5211C225.429 41.6109 225.487 41.6919 225.559 41.7595C225.704 41.8959 225.898 41.9694 226.097 41.9639C226.297 41.9583 226.486 41.8743 226.624 41.73V41.73ZM226.866 45.0409C226.952 44.9495 227.019 44.8418 227.064 44.7243C227.109 44.6067 227.13 44.4815 227.126 44.3557C227.122 44.23 227.094 44.1062 227.042 43.9915C226.991 43.8768 226.917 43.7734 226.825 43.6872C226.688 43.5574 226.515 43.4714 226.328 43.44C226.141 43.4085 225.95 43.4332 225.777 43.5107C225.604 43.5882 225.459 43.7152 225.358 43.8755C225.258 44.0358 225.207 44.2224 225.213 44.4115C225.218 44.6007 225.279 44.784 225.389 44.9382C225.499 45.0924 225.652 45.2107 225.828 45.2781C226.005 45.3454 226.198 45.3588 226.383 45.3166C226.567 45.2744 226.735 45.1785 226.865 45.0409H226.866ZM228.02 48.1112C228.215 47.9041 228.321 47.628 228.312 47.3435C228.304 47.059 228.183 46.7895 227.976 46.5942C227.769 46.3989 227.493 46.2939 227.208 46.3022C226.924 46.3105 226.654 46.4315 226.459 46.6385C226.362 46.7408 226.286 46.8613 226.235 46.9931C226.185 47.1249 226.16 47.2653 226.164 47.4064C226.168 47.5475 226.2 47.6865 226.257 47.8153C226.315 47.9442 226.397 48.0604 226.5 48.1573C226.708 48.3512 226.985 48.4551 227.27 48.4465C227.554 48.4378 227.824 48.3174 228.02 48.1112V48.1112ZM240.608 51.8408C240.727 51.9422 240.88 51.994 241.036 51.9854C241.192 51.9769 241.339 51.9087 241.446 51.7949C241.554 51.6812 241.613 51.5306 241.612 51.3742C241.612 51.2179 241.551 51.0678 241.443 50.955C241.385 50.9001 241.316 50.8573 241.242 50.8289C241.167 50.8005 241.087 50.7871 241.007 50.7894C240.927 50.7918 240.849 50.8099 240.776 50.8426C240.703 50.8754 240.637 50.9222 240.582 50.9803C240.528 51.0385 240.485 51.1069 240.456 51.1816C240.428 51.2564 240.414 51.3359 240.417 51.4158C240.419 51.4957 240.437 51.5744 240.47 51.6473C240.503 51.7202 240.55 51.786 240.608 51.8408V51.8408ZM237.518 53.0121C237.663 53.1482 237.857 53.221 238.056 53.2148C238.255 53.2085 238.444 53.1237 238.581 52.9788C238.649 52.9074 238.702 52.8233 238.737 52.7313C238.773 52.6393 238.789 52.5412 238.787 52.4427C238.784 52.3442 238.762 52.2471 238.721 52.1572C238.681 52.0673 238.623 51.9863 238.551 51.9188C238.405 51.7822 238.211 51.7088 238.011 51.7148C237.811 51.7207 237.622 51.8055 237.484 51.9506C237.349 52.0961 237.276 52.2894 237.282 52.4883C237.289 52.6871 237.373 52.8755 237.518 53.0121V53.0121ZM234.202 53.2522C234.293 53.3386 234.401 53.4062 234.518 53.4511C234.635 53.4961 234.76 53.5174 234.885 53.514C235.011 53.5105 235.134 53.4823 235.249 53.431C235.364 53.3798 235.467 53.3064 235.553 53.2151C235.916 52.8312 235.901 52.2255 235.515 51.8658C235.33 51.6921 235.084 51.5985 234.83 51.6056C234.576 51.6127 234.336 51.7199 234.161 51.9037C233.987 52.088 233.894 52.3337 233.902 52.5865C233.91 52.8394 234.018 53.0789 234.202 53.2522V53.2522ZM231.075 52.4549C231.229 52.6005 231.424 52.6969 231.633 52.732C231.843 52.767 232.058 52.7391 232.252 52.6518C232.445 52.5645 232.609 52.4217 232.721 52.2414C232.834 52.0612 232.89 51.8517 232.883 51.6393C232.877 51.427 232.807 51.2214 232.684 51.0486C232.56 50.8757 232.388 50.7435 232.189 50.6685C231.99 50.5935 231.774 50.5792 231.567 50.6274C231.36 50.6756 231.172 50.784 231.027 50.9391C230.93 51.0416 230.855 51.1622 230.805 51.2939C230.755 51.4257 230.731 51.566 230.736 51.7069C230.74 51.8477 230.772 51.9863 230.83 52.1147C230.889 52.2431 230.972 52.3587 231.075 52.4549V52.4549ZM239.216 35.4775C239.18 35.5982 239.121 35.7107 239.041 35.8084C238.962 35.9062 238.864 35.9873 238.753 36.0472C238.642 36.107 238.521 36.1444 238.395 36.1572C238.27 36.17 238.143 36.158 238.023 36.1218C237.901 36.087 237.788 36.0285 237.689 35.9495C237.59 35.8705 237.508 35.7727 237.448 35.6618C237.387 35.5508 237.349 35.4289 237.336 35.3032C237.323 35.1774 237.335 35.0503 237.372 34.9293C237.405 34.8055 237.463 34.6898 237.542 34.5888C237.622 34.4878 237.72 34.4036 237.832 34.3412C237.944 34.2788 238.067 34.2394 238.195 34.2254C238.322 34.2114 238.451 34.2229 238.574 34.2595C238.697 34.296 238.812 34.3568 238.911 34.4382C239.01 34.5195 239.092 34.6199 239.152 34.7334C239.211 34.8469 239.248 34.9711 239.259 35.0989C239.27 35.2267 239.255 35.3554 239.216 35.4775V35.4775ZM229.99 37.7459C229.869 37.7121 229.739 37.7272 229.629 37.7877C229.519 37.8482 229.436 37.9495 229.4 38.0699C229.326 38.3198 229.472 38.5848 229.724 38.656C229.784 38.6735 229.846 38.6791 229.908 38.6725C229.97 38.6658 230.03 38.647 230.085 38.6172C230.139 38.5873 230.188 38.547 230.227 38.4985C230.266 38.45 230.295 38.3943 230.312 38.3345C230.33 38.2748 230.336 38.2122 230.329 38.1502C230.322 38.0883 230.304 38.0283 230.274 37.9736C230.244 37.919 230.204 37.8707 230.155 37.8316C230.107 37.7926 230.051 37.7634 229.991 37.7459H229.99ZM231.66 35.9121C231.586 35.8905 231.509 35.8837 231.432 35.892C231.356 35.9004 231.282 35.9237 231.214 35.9607C231.147 35.9977 231.087 36.0476 231.039 36.1076C230.991 36.1676 230.955 36.2365 230.934 36.3103C230.912 36.3842 230.905 36.4617 230.913 36.5383C230.922 36.6149 230.945 36.6891 230.982 36.7567C231.019 36.8243 231.069 36.884 231.129 36.9323C231.189 36.9806 231.258 37.0166 231.332 37.0383C231.405 37.06 231.483 37.0669 231.56 37.0586C231.636 37.0504 231.71 37.0271 231.778 36.9901C231.846 36.9532 231.905 36.9033 231.954 36.8433C232.002 36.7833 232.038 36.7144 232.06 36.6404C232.103 36.4908 232.085 36.3303 232.01 36.1939C231.935 36.0575 231.809 35.9562 231.66 35.9121V35.9121ZM233.799 34.6196C233.609 34.5645 233.406 34.5864 233.232 34.6805C233.059 34.7746 232.929 34.9334 232.872 35.1224C232.845 35.2163 232.836 35.3148 232.847 35.412C232.857 35.5093 232.887 35.6035 232.934 35.6893C232.981 35.7751 233.045 35.8508 233.121 35.912C233.198 35.9732 233.285 36.0188 233.379 36.0461C233.473 36.0741 233.571 36.0832 233.669 36.0731C233.766 36.0629 233.86 36.0337 233.946 35.9869C234.032 35.9402 234.108 35.877 234.169 35.8008C234.231 35.7247 234.276 35.6372 234.304 35.5433C234.357 35.3539 234.334 35.1511 234.24 34.9783C234.145 34.8056 233.987 34.6768 233.799 34.6196V34.6196ZM236.167 34.0896C236.061 34.0583 235.951 34.0481 235.841 34.0597C235.731 34.0713 235.625 34.1045 235.529 34.1572C235.432 34.21 235.346 34.2814 235.277 34.3672C235.208 34.4531 235.157 34.5517 235.126 34.6575C234.993 35.1019 235.247 35.5638 235.692 35.697C235.905 35.7587 236.134 35.7341 236.329 35.6283C236.523 35.5226 236.668 35.3443 236.733 35.1322C236.764 35.0266 236.775 34.9158 236.764 34.8061C236.752 34.6965 236.719 34.5901 236.667 34.4932C236.614 34.3963 236.543 34.3108 236.457 34.2415C236.371 34.1722 236.273 34.1206 236.167 34.0896V34.0896ZM228.936 40.0165C228.847 39.9904 228.75 40.0008 228.668 40.0455C228.586 40.0902 228.525 40.1655 228.498 40.255C228.471 40.3456 228.481 40.4431 228.526 40.5264C228.57 40.6096 228.646 40.6718 228.736 40.6995C228.826 40.724 228.922 40.7123 229.004 40.6668C229.085 40.6212 229.145 40.5456 229.172 40.4561C229.198 40.3666 229.188 40.2704 229.144 40.1882C229.1 40.106 229.025 40.0444 228.936 40.0165V40.0165ZM243.307 42.1509C243.231 42.4 243.375 42.6665 243.629 42.7392C243.688 42.7569 243.751 42.7626 243.813 42.756C243.875 42.7495 243.935 42.7307 243.99 42.701C244.045 42.6712 244.093 42.6309 244.132 42.5825C244.171 42.534 244.2 42.4783 244.218 42.4186C244.236 42.3588 244.241 42.2962 244.235 42.2342C244.228 42.1722 244.21 42.1122 244.18 42.0574C244.15 42.0027 244.11 41.9544 244.061 41.9152C244.013 41.876 243.957 41.8468 243.897 41.8291C243.777 41.7939 243.647 41.8079 243.536 41.8682C243.425 41.9285 243.343 42.0302 243.307 42.1509V42.1509ZM242.758 39.7773C242.736 39.8514 242.728 39.9293 242.736 40.0064C242.744 40.0835 242.767 40.1582 242.804 40.2262C242.842 40.2942 242.892 40.3542 242.952 40.4025C243.013 40.4509 243.082 40.4867 243.157 40.5079C243.231 40.5298 243.308 40.5369 243.385 40.5287C243.462 40.5205 243.536 40.4972 243.603 40.4602C243.671 40.4232 243.731 40.3731 243.779 40.313C243.827 40.2528 243.863 40.1837 243.884 40.1097C243.906 40.036 243.913 39.9587 243.905 39.8823C243.896 39.8059 243.873 39.7319 243.836 39.6645C243.799 39.5971 243.75 39.5376 243.69 39.4896C243.63 39.4415 243.561 39.4057 243.487 39.3843C243.413 39.3622 243.336 39.3549 243.259 39.3627C243.183 39.3705 243.109 39.3934 243.041 39.4299C242.973 39.4665 242.913 39.5161 242.865 39.5758C242.816 39.6355 242.78 39.7043 242.758 39.778V39.7773ZM241.464 37.6421C241.436 37.736 241.427 37.8345 241.437 37.9319C241.447 38.0293 241.477 38.1237 241.523 38.2098C241.57 38.2958 241.633 38.3718 241.71 38.4333C241.786 38.4948 241.874 38.5406 241.968 38.5681C242.157 38.6235 242.361 38.6013 242.535 38.5065C242.708 38.4117 242.837 38.252 242.893 38.0624C242.921 37.9688 242.93 37.8706 242.92 37.7734C242.91 37.6763 242.88 37.5822 242.833 37.4966C242.786 37.4109 242.722 37.3355 242.646 37.2747C242.57 37.2139 242.482 37.1689 242.388 37.1424C242.199 37.0873 241.996 37.1088 241.823 37.2024C241.65 37.296 241.521 37.454 241.464 37.6421ZM239.644 35.984C239.613 36.0896 239.603 36.2002 239.615 36.3096C239.627 36.4189 239.661 36.5249 239.713 36.6213C239.766 36.7178 239.838 36.8029 239.923 36.8718C240.009 36.9407 240.108 36.992 240.213 37.0228C240.319 37.0536 240.429 37.0633 240.539 37.0514C240.648 37.0395 240.754 37.0061 240.851 36.9533C240.947 36.9004 241.032 36.829 241.101 36.7433C241.17 36.6575 241.221 36.559 241.252 36.4534C241.284 36.3481 241.294 36.2376 241.283 36.1283C241.271 36.019 241.238 35.913 241.186 35.8164C241.133 35.7198 241.062 35.6346 240.977 35.5657C240.891 35.4967 240.793 35.4454 240.687 35.4146C240.473 35.3526 240.244 35.3776 240.048 35.4843C239.853 35.591 239.707 35.7706 239.644 35.984V35.984ZM243.115 44.5458C243.089 44.6357 243.099 44.7323 243.143 44.8147C243.188 44.8971 243.263 44.9588 243.352 44.9864C243.397 44.9999 243.444 45.0044 243.491 44.9996C243.537 44.9947 243.582 44.9806 243.623 44.9581C243.664 44.9356 243.701 44.9052 243.73 44.8686C243.759 44.832 243.78 44.7899 243.793 44.7449C243.806 44.7003 243.811 44.6534 243.806 44.607C243.801 44.5606 243.788 44.5156 243.765 44.4747C243.743 44.4337 243.713 44.3975 243.677 44.3683C243.64 44.339 243.599 44.3173 243.554 44.3042C243.463 44.2791 243.367 44.2904 243.285 44.3357C243.203 44.381 243.142 44.4567 243.115 44.5465V44.5458ZM234.923 50.0752C234.959 49.9537 234.971 49.8262 234.958 49.7001C234.945 49.5741 234.907 49.4518 234.846 49.3405C234.785 49.2292 234.703 49.131 234.604 49.0515C234.506 48.972 234.392 48.9128 234.27 48.8774C234.149 48.8419 234.022 48.8306 233.896 48.8443C233.771 48.8579 233.649 48.8962 233.538 48.9569C233.427 49.0176 233.329 49.0996 233.25 49.1981C233.171 49.2966 233.112 49.4098 233.076 49.5312C233.041 49.6525 233.029 49.7797 233.043 49.9054C233.057 50.0311 233.095 50.1529 233.156 50.2638C233.216 50.3747 233.298 50.4726 233.397 50.5518C233.495 50.631 233.608 50.6901 233.73 50.7256C233.974 50.7961 234.237 50.7673 234.46 50.6454C234.684 50.5234 234.85 50.3183 234.923 50.0744V50.0752ZM228.986 42.8483C229.021 42.7278 229.007 42.5981 228.947 42.4877C228.888 42.3773 228.786 42.2951 228.666 42.2592C228.545 42.2248 228.415 42.2394 228.304 42.2998C228.193 42.3603 228.111 42.4618 228.074 42.5825C227.998 42.8324 228.146 43.0936 228.397 43.1685C228.647 43.2442 228.911 43.1019 228.986 42.8483V42.8483ZM229.537 45.2211C229.559 45.1477 229.566 45.0706 229.558 44.9943C229.55 44.918 229.527 44.8441 229.49 44.7768C229.453 44.7096 229.403 44.6503 229.343 44.6024C229.283 44.5546 229.215 44.5191 229.141 44.4981C229.067 44.4749 228.99 44.4668 228.913 44.4742C228.836 44.4815 228.762 44.5043 228.694 44.541C228.626 44.5777 228.566 44.6277 228.518 44.6879C228.47 44.7482 228.435 44.8175 228.414 44.8918C228.39 44.9662 228.381 45.0446 228.388 45.1224C228.395 45.2002 228.417 45.2759 228.454 45.345C228.49 45.414 228.54 45.475 228.601 45.5244C228.662 45.5738 228.731 45.6106 228.806 45.6326C228.881 45.6546 228.96 45.6614 229.038 45.6525C229.115 45.6436 229.19 45.6193 229.258 45.5809C229.326 45.5426 229.386 45.491 229.434 45.4292C229.482 45.3674 229.517 45.2967 229.537 45.2211V45.2211ZM230.831 47.3586C230.886 47.168 230.863 46.9636 230.768 46.7897C230.673 46.6159 230.513 46.4867 230.323 46.4303C230.229 46.4029 230.13 46.3943 230.033 46.405C229.936 46.4157 229.842 46.4455 229.756 46.4926C229.67 46.5397 229.594 46.6032 229.533 46.6796C229.472 46.7559 229.426 46.8436 229.399 46.9376C229.371 47.0313 229.362 47.1297 229.372 47.2271C229.382 47.3245 229.411 47.4188 229.458 47.5048C229.505 47.5907 229.569 47.6664 229.645 47.7276C229.721 47.7888 229.809 47.8343 229.903 47.8613C230.093 47.9177 230.297 47.8964 230.471 47.8021C230.646 47.7079 230.775 47.5483 230.831 47.3586ZM232.651 49.019C232.713 48.8054 232.688 48.5758 232.581 48.3807C232.474 48.1857 232.294 48.041 232.081 47.9787C231.975 47.9475 231.865 47.9376 231.755 47.9494C231.646 47.9613 231.54 47.9947 231.443 48.0477C231.347 48.1007 231.262 48.1722 231.193 48.2582C231.125 48.3442 231.074 48.443 231.043 48.5488C231.012 48.6541 231.002 48.7645 231.014 48.8737C231.026 48.9829 231.059 49.0887 231.111 49.185C231.164 49.2814 231.235 49.3663 231.321 49.435C231.407 49.5037 231.505 49.5548 231.611 49.5853C231.824 49.6468 232.052 49.6218 232.247 49.5157C232.442 49.4097 232.587 49.2312 232.651 49.019V49.019ZM242.3 47.2518C242.421 47.2876 242.552 47.2739 242.663 47.2137C242.774 47.1536 242.857 47.0518 242.894 46.9308C242.928 46.8096 242.914 46.6797 242.854 46.5689C242.794 46.4582 242.692 46.3755 242.572 46.3387C242.451 46.3039 242.321 46.3184 242.21 46.3789C242.099 46.4394 242.017 46.5412 241.981 46.662C241.945 46.7826 241.959 46.9124 242.019 47.0231C242.078 47.1338 242.179 47.2163 242.3 47.2526V47.2518ZM240.634 49.0879C240.783 49.1319 240.944 49.1149 241.081 49.0406C241.217 48.9663 241.319 48.8407 241.363 48.6915C241.407 48.5423 241.39 48.3817 241.316 48.245C241.241 48.1084 241.116 48.0068 240.967 47.9628C240.817 47.9194 240.656 47.9368 240.519 48.0112C240.381 48.0856 240.279 48.211 240.234 48.3603C240.192 48.5098 240.21 48.6699 240.285 48.8059C240.36 48.942 240.485 49.0432 240.634 49.0879V49.0879ZM238.496 50.3826C238.59 50.4103 238.688 50.4192 238.785 50.4089C238.883 50.3986 238.977 50.3692 239.063 50.3225C239.149 50.2757 239.225 50.2125 239.286 50.1364C239.348 50.0603 239.394 49.9729 239.421 49.8791C239.449 49.7853 239.458 49.6869 239.448 49.5897C239.437 49.4924 239.408 49.3981 239.361 49.3122C239.314 49.2263 239.251 49.1504 239.175 49.0889C239.099 49.0274 239.012 48.9815 238.918 48.9539C238.822 48.9204 238.721 48.9066 238.62 48.9135C238.519 48.9203 238.421 48.9476 238.331 48.9937C238.241 49.0398 238.161 49.1037 238.097 49.1815C238.032 49.2593 237.984 49.3495 237.956 49.4464C237.927 49.5434 237.918 49.6452 237.93 49.7456C237.942 49.846 237.974 49.9429 238.025 50.0305C238.075 50.118 238.143 50.1944 238.224 50.2549C238.305 50.3155 238.398 50.3589 238.496 50.3826V50.3826ZM236.128 50.9096C236.234 50.9414 236.344 50.9521 236.454 50.941C236.563 50.9298 236.669 50.8971 236.766 50.8446C236.862 50.7921 236.948 50.721 237.017 50.6353C237.085 50.5496 237.137 50.4511 237.167 50.3455C237.23 50.1323 237.205 49.9031 237.098 49.7082C236.992 49.5133 236.812 49.3688 236.599 49.3063C236.386 49.2439 236.157 49.2686 235.962 49.3752C235.767 49.4818 235.622 49.6614 235.56 49.8745C235.498 50.0872 235.524 50.3155 235.63 50.5095C235.737 50.7035 235.916 50.8473 236.128 50.9096ZM234.167 37.2605C234.261 37.4348 234.282 37.639 234.226 37.8286C234.169 38.0182 234.04 38.1779 233.867 38.2728C233.691 38.3663 233.486 38.3866 233.296 38.3291C233.105 38.2717 232.945 38.1412 232.851 37.9662C232.76 37.7917 232.741 37.5884 232.799 37.4003C232.857 37.2122 232.987 37.0546 233.16 36.9617C233.334 36.8688 233.537 36.848 233.726 36.904C233.914 36.9599 234.073 37.0881 234.168 37.2605H234.167ZM230.471 43.1057C230.369 43.1623 230.293 43.2567 230.261 43.3687C230.228 43.4807 230.24 43.6011 230.295 43.7038C230.323 43.7549 230.36 43.8 230.405 43.8365C230.45 43.873 230.502 43.9002 230.557 43.9163C230.613 43.9325 230.671 43.9373 230.729 43.9306C230.786 43.9239 230.842 43.9057 230.892 43.8772C230.943 43.8507 230.989 43.814 231.026 43.7696C231.063 43.7251 231.09 43.6736 231.107 43.6182C231.124 43.5629 231.129 43.5047 231.123 43.4472C231.117 43.3898 231.099 43.3341 231.071 43.2836C231.014 43.1815 230.919 43.1057 230.807 43.0726C230.695 43.0395 230.574 43.0516 230.471 43.1064V43.1057ZM230.397 41.3097C230.279 41.3746 230.191 41.4835 230.152 41.6128C230.114 41.7421 230.128 41.8813 230.192 42.0003C230.256 42.1203 230.366 42.2099 230.497 42.2492C230.627 42.2885 230.768 42.2744 230.888 42.21C231.007 42.1443 231.096 42.0346 231.135 41.9043C231.174 41.774 231.16 41.6336 231.096 41.5134C231.064 41.454 231.02 41.4016 230.967 41.3592C230.915 41.3167 230.854 41.2852 230.789 41.2662C230.724 41.2473 230.656 41.2414 230.589 41.2489C230.521 41.2563 230.456 41.277 230.397 41.3097V41.3097ZM230.864 39.5812C230.728 39.655 230.626 39.7796 230.581 39.9281C230.536 40.0765 230.551 40.2367 230.623 40.3739C230.698 40.51 230.823 40.6111 230.972 40.6555C231.121 40.6998 231.281 40.6838 231.418 40.6109C231.486 40.5746 231.547 40.5253 231.596 40.4656C231.645 40.406 231.681 40.3372 231.704 40.2633C231.726 40.1894 231.733 40.1119 231.726 40.0351C231.718 39.9583 231.695 39.8838 231.658 39.8159C231.583 39.6799 231.458 39.579 231.309 39.535C231.16 39.4911 231 39.5077 230.863 39.5812H230.864ZM231.817 38.0843C231.739 38.1249 231.671 38.1805 231.616 38.2478C231.56 38.315 231.519 38.3927 231.494 38.4761C231.469 38.5596 231.461 38.6472 231.47 38.7339C231.479 38.8205 231.506 38.9044 231.548 38.9808C231.721 39.2988 232.116 39.4192 232.435 39.2465C232.512 39.2063 232.58 39.1512 232.636 39.0844C232.691 39.0177 232.733 38.9406 232.758 38.8576C232.783 38.7746 232.792 38.6874 232.783 38.601C232.775 38.5147 232.749 38.4309 232.708 38.3546C232.667 38.2782 232.612 38.2106 232.545 38.1557C232.478 38.1007 232.401 38.0595 232.318 38.0344C232.235 38.0093 232.148 38.0007 232.062 38.0093C231.976 38.0179 231.893 38.0434 231.817 38.0843V38.0843ZM231.087 44.8085C231.044 44.8314 231.006 44.8626 230.976 44.9002C230.945 44.9377 230.922 44.981 230.908 45.0275C230.895 45.0739 230.89 45.1226 230.895 45.1708C230.9 45.219 230.915 45.2657 230.938 45.3082C231.035 45.4846 231.255 45.5505 231.438 45.4574C231.523 45.4097 231.585 45.3307 231.613 45.2373C231.64 45.1439 231.63 45.0435 231.584 44.9577C231.537 44.8724 231.459 44.8089 231.366 44.7809C231.273 44.753 231.173 44.7629 231.087 44.8085V44.8085ZM239.592 38.6893C239.649 38.7917 239.743 38.8679 239.856 38.9014C239.968 38.9349 240.089 38.9232 240.193 38.8687C240.295 38.8118 240.371 38.7172 240.404 38.605C240.437 38.4929 240.425 38.3723 240.37 38.2691C240.343 38.2183 240.305 38.1734 240.26 38.137C240.216 38.1006 240.164 38.0733 240.109 38.0569C240.053 38.0404 239.995 38.035 239.938 38.0411C239.881 38.0471 239.825 38.0643 239.774 38.0919C239.723 38.119 239.677 38.156 239.64 38.2008C239.603 38.2455 239.576 38.2971 239.559 38.3527C239.542 38.4082 239.536 38.4665 239.542 38.5242C239.547 38.582 239.564 38.6381 239.592 38.6893V38.6893ZM238.098 37.7383C238.233 37.9882 238.549 38.079 238.791 37.9427C238.851 37.9115 238.904 37.8686 238.947 37.8166C238.99 37.7646 239.022 37.7046 239.042 37.64C239.061 37.5754 239.068 37.5076 239.061 37.4405C239.054 37.3734 239.034 37.3083 239.001 37.2492C238.936 37.1301 238.827 37.0413 238.698 37.002C238.568 36.9628 238.428 36.9762 238.308 37.0395C238.188 37.1049 238.099 37.2149 238.06 37.3457C238.02 37.4765 238.034 37.6175 238.098 37.7383V37.7383ZM236.37 37.2772C236.521 37.5596 236.877 37.6664 237.16 37.5112C237.228 37.4752 237.288 37.4261 237.337 37.3667C237.386 37.3073 237.423 37.2388 237.446 37.1652C237.468 37.0915 237.476 37.0141 237.468 36.9374C237.461 36.8608 237.438 36.7863 237.402 36.7184C237.366 36.6502 237.316 36.5899 237.257 36.5411C237.197 36.4922 237.128 36.4558 237.054 36.434C236.98 36.4123 236.902 36.4055 236.825 36.4141C236.749 36.4228 236.674 36.4467 236.607 36.4845C236.539 36.5208 236.479 36.5702 236.431 36.6298C236.382 36.6894 236.346 36.7579 236.324 36.8316C236.302 36.9053 236.295 36.9825 236.302 37.059C236.31 37.1355 236.333 37.2096 236.37 37.2772V37.2772ZM234.568 37.3476C234.651 37.5023 234.792 37.6178 234.96 37.6688C235.128 37.7197 235.309 37.702 235.464 37.6194C235.54 37.5781 235.608 37.5221 235.662 37.4546C235.717 37.3872 235.758 37.3096 235.783 37.2264C235.807 37.1431 235.815 37.0558 235.806 36.9695C235.797 36.8831 235.772 36.7993 235.73 36.723C235.689 36.6466 235.633 36.5791 235.565 36.5244C235.498 36.4697 235.42 36.4288 235.337 36.404C235.254 36.3793 235.167 36.3712 235.08 36.3802C234.994 36.3892 234.91 36.4151 234.834 36.4565C234.681 36.5397 234.567 36.6803 234.517 36.8473C234.468 37.0143 234.486 37.1942 234.569 37.3476H234.568ZM240.714 40.034C240.808 40.2119 241.032 40.277 241.206 40.1808C241.249 40.159 241.286 40.1287 241.317 40.0918C241.348 40.055 241.371 40.0122 241.385 39.9663C241.398 39.9203 241.403 39.872 241.397 39.8243C241.392 39.7766 241.377 39.7305 241.353 39.6887C241.308 39.6024 241.23 39.5375 241.137 39.5082C241.044 39.4788 240.943 39.4874 240.856 39.532C240.772 39.5813 240.711 39.661 240.684 39.7544C240.658 39.8479 240.668 39.948 240.714 40.034ZM239.444 47.0247C239.398 46.9375 239.334 46.8604 239.258 46.7979C239.182 46.7354 239.094 46.6886 238.999 46.6604C238.904 46.6322 238.805 46.623 238.707 46.6334C238.609 46.6438 238.514 46.6736 238.427 46.721C238.34 46.7672 238.264 46.8302 238.202 46.9062C238.14 46.9823 238.093 47.07 238.066 47.1641C238.038 47.2583 238.029 47.357 238.04 47.4546C238.05 47.5522 238.08 47.6467 238.128 47.7326C238.224 47.9058 238.384 48.0345 238.573 48.0913C238.763 48.148 238.967 48.1283 239.143 48.0362C239.316 47.9411 239.445 47.7816 239.501 47.5923C239.557 47.4029 239.537 47.199 239.444 47.0247V47.0247ZM232.701 46.3001C232.644 46.199 232.55 46.1241 232.439 46.0913C232.328 46.0584 232.209 46.0703 232.107 46.1244C232.056 46.1514 232.011 46.1881 231.974 46.2325C231.938 46.2769 231.91 46.3282 231.894 46.3832C231.877 46.4383 231.872 46.4961 231.877 46.5533C231.883 46.6105 231.9 46.6659 231.928 46.7165C232.04 46.933 232.307 47.0118 232.522 46.8914C232.573 46.8644 232.618 46.8278 232.654 46.7835C232.69 46.7392 232.718 46.6881 232.734 46.6332C232.751 46.5784 232.756 46.5207 232.751 46.4637C232.745 46.4067 232.728 46.3513 232.701 46.3008V46.3001ZM234.196 47.251C234.148 47.1622 234.074 47.0897 233.984 47.0428C233.894 46.9958 233.793 46.9764 233.692 46.987C233.591 46.9977 233.496 47.0379 233.418 47.1026C233.34 47.1673 233.283 47.2536 233.254 47.3506C233.225 47.4477 233.225 47.5511 233.255 47.6479C233.285 47.7448 233.342 47.8307 233.421 47.8948C233.499 47.959 233.595 47.9985 233.696 48.0084C233.796 48.0183 233.898 47.9982 233.987 47.9506C234.237 47.8113 234.33 47.4964 234.196 47.251ZM235.926 47.7129C235.776 47.4297 235.417 47.329 235.128 47.4759C234.998 47.5536 234.903 47.6786 234.862 47.8249C234.822 47.9712 234.84 48.1274 234.912 48.2609C234.984 48.3943 235.105 48.4948 235.249 48.5413C235.394 48.5877 235.551 48.5766 235.687 48.5102C235.756 48.4742 235.816 48.4248 235.866 48.365C235.915 48.3052 235.952 48.2361 235.974 48.1619C235.997 48.0876 236.004 48.0096 235.996 47.9325C235.987 47.8554 235.964 47.7808 235.926 47.7129V47.7129ZM237.726 47.641C237.642 47.487 237.501 47.3724 237.333 47.3221C237.165 47.2718 236.984 47.2898 236.83 47.3722C236.753 47.4135 236.686 47.4695 236.632 47.5371C236.577 47.6046 236.537 47.6823 236.513 47.7656C236.489 47.8489 236.482 47.9361 236.492 48.0222C236.502 48.1083 236.529 48.1916 236.571 48.2671C236.612 48.3434 236.667 48.4109 236.734 48.4656C236.801 48.5204 236.878 48.5613 236.96 48.5859C237.043 48.6106 237.13 48.6185 237.216 48.6093C237.302 48.6001 237.385 48.5738 237.46 48.5321C237.536 48.4913 237.604 48.4358 237.659 48.3689C237.713 48.3019 237.754 48.2247 237.779 48.1419C237.803 48.0591 237.812 47.9721 237.802 47.8862C237.793 47.8002 237.767 47.7169 237.726 47.641V47.641ZM241.816 41.889C241.919 41.832 241.996 41.7376 242.03 41.6254C242.065 41.5131 242.054 41.3919 242.002 41.287C241.946 41.1848 241.852 41.1087 241.741 41.0754C241.629 41.042 241.509 41.0542 241.406 41.1091C241.355 41.136 241.309 41.173 241.272 41.2178C241.235 41.2626 241.208 41.3144 241.191 41.37C241.174 41.4257 241.169 41.4841 241.175 41.5419C241.181 41.5997 241.199 41.6556 241.227 41.7065C241.282 41.8079 241.374 41.8838 241.484 41.9178C241.595 41.9518 241.714 41.9411 241.816 41.8882V41.889ZM241.899 43.6834C241.958 43.6512 242.011 43.6076 242.053 43.5552C242.095 43.5028 242.126 43.4426 242.145 43.378C242.164 43.3134 242.17 43.2457 242.163 43.1789C242.155 43.112 242.135 43.0473 242.102 42.9883C242.071 42.929 242.028 42.8766 241.975 42.834C241.923 42.7915 241.864 42.7596 241.799 42.7403C241.735 42.7209 241.667 42.7145 241.6 42.7213C241.534 42.7281 241.469 42.7481 241.41 42.7801C241.29 42.8462 241.201 42.9564 241.162 43.0872C241.123 43.2179 241.136 43.3588 241.2 43.4797C241.267 43.5978 241.378 43.685 241.508 43.7229C241.639 43.7608 241.779 43.7463 241.899 43.6826V43.6834ZM241.43 45.4119C241.568 45.3383 241.671 45.2132 241.716 45.064C241.762 44.9147 241.747 44.7535 241.674 44.6154C241.597 44.4835 241.471 44.3866 241.324 44.3454C241.177 44.3042 241.019 44.3218 240.884 44.3944C240.75 44.4671 240.649 44.5892 240.603 44.735C240.556 44.8807 240.568 45.0387 240.636 45.1757C240.711 45.3111 240.836 45.4116 240.985 45.4558C241.133 45.5 241.292 45.4842 241.429 45.4119H241.43ZM240.483 46.902C240.559 46.861 240.626 46.8054 240.681 46.7384C240.736 46.6714 240.776 46.5942 240.801 46.5114C240.826 46.4285 240.834 46.3416 240.825 46.2555C240.816 46.1695 240.79 46.0861 240.749 46.0101C240.688 45.8953 240.593 45.8013 240.478 45.7402C240.363 45.6791 240.232 45.6535 240.102 45.6667C239.973 45.6799 239.85 45.7312 239.749 45.8143C239.649 45.8974 239.575 46.0084 239.538 46.1333C239.501 46.2582 239.501 46.3913 239.54 46.5159C239.578 46.6405 239.652 46.7509 239.754 46.8331C239.855 46.9154 239.978 46.9657 240.108 46.9779C240.238 46.99 240.368 46.9633 240.483 46.9012V46.902ZM253.282 44.4155C253.031 44.4153 252.781 44.3656 252.549 44.269C252.316 44.1725 252.105 44.0311 251.927 43.853C251.749 43.6748 251.608 43.4634 251.512 43.2307C251.416 42.998 251.367 42.7487 251.367 42.4969C251.366 42.2451 251.416 41.9957 251.512 41.763C251.609 41.5303 251.75 41.319 251.929 41.1412C252.107 40.9634 252.319 40.8226 252.552 40.7269C252.785 40.6312 253.034 40.5825 253.286 40.5836C253.538 40.5831 253.787 40.6324 254.02 40.7285C254.253 40.8246 254.464 40.9657 254.642 41.1438C254.821 41.3218 254.962 41.5332 255.058 41.766C255.154 41.9987 255.204 42.2481 255.203 42.5C255.202 43.0086 254.999 43.4961 254.639 43.8552C254.279 44.2144 253.791 44.4159 253.282 44.4155V44.4155ZM245.752 27.8871C245.781 27.7513 245.783 27.6111 245.758 27.4745C245.733 27.3379 245.681 27.2076 245.605 27.0912C245.529 26.9747 245.431 26.8744 245.317 26.7959C245.202 26.7175 245.073 26.6625 244.937 26.634C244.666 26.5833 244.386 26.6406 244.156 26.7936C243.927 26.9466 243.766 27.1832 243.709 27.453C243.652 27.7227 243.702 28.0042 243.849 28.2374C243.996 28.4706 244.229 28.637 244.497 28.701C244.771 28.7594 245.057 28.7066 245.293 28.5541C245.528 28.4016 245.693 28.162 245.752 27.8879V27.8871ZM249.531 30.5901C249.558 30.424 249.551 30.2543 249.512 30.0908C249.472 29.9273 249.401 29.7731 249.302 29.6371C249.203 29.5011 249.079 29.3859 248.935 29.2982C248.792 29.2105 248.632 29.1519 248.466 29.1258C248.3 29.099 248.13 29.1054 247.966 29.1444C247.802 29.1835 247.648 29.2545 247.511 29.3534C247.375 29.4523 247.26 29.5771 247.172 29.7208C247.084 29.8644 247.025 30.024 246.999 30.1903C246.972 30.3567 246.978 30.5268 247.018 30.6907C247.057 30.8546 247.128 31.0092 247.227 31.1455C247.326 31.2819 247.451 31.3973 247.595 31.4852C247.739 31.5731 247.898 31.6317 248.065 31.6577C248.401 31.7104 248.744 31.6276 249.019 31.4274C249.294 31.2272 249.478 30.9261 249.531 30.5901ZM252.577 34.104C252.599 33.8952 252.58 33.6841 252.521 33.4827C252.461 33.2812 252.363 33.0935 252.231 32.9303C252.098 32.7671 251.935 32.6316 251.751 32.5316C251.566 32.4315 251.364 32.369 251.155 32.3474C250.733 32.3033 250.311 32.4285 249.981 32.6954C249.652 32.9623 249.441 33.3491 249.397 33.7709C249.375 33.9797 249.394 34.1907 249.454 34.392C249.514 34.5933 249.612 34.7808 249.745 34.944C249.877 35.1071 250.04 35.2425 250.224 35.3427C250.409 35.4428 250.611 35.5056 250.82 35.5274C251.029 35.5493 251.24 35.5298 251.441 35.4701C251.642 35.4105 251.83 35.3117 251.993 35.1795C252.156 35.0473 252.292 34.8843 252.392 34.6998C252.492 34.5153 252.555 34.3128 252.577 34.104ZM254.466 38.157C254.478 37.9261 254.445 37.6949 254.368 37.4769C254.291 37.2589 254.171 37.0582 254.016 36.8864C253.862 36.7146 253.674 36.5751 253.466 36.4759C253.257 36.3766 253.03 36.3196 252.799 36.3081C252.568 36.2951 252.337 36.3279 252.118 36.4047C251.9 36.4814 251.698 36.6005 251.526 36.7552C251.354 36.91 251.214 37.0972 251.114 37.3062C251.014 37.5151 250.957 37.7418 250.945 37.973C250.926 38.2078 250.955 38.4439 251.029 38.6675C251.103 38.891 251.222 39.0974 251.377 39.2745C251.532 39.4516 251.721 39.5958 251.933 39.6986C252.145 39.8013 252.376 39.8606 252.611 39.8729C252.846 39.8852 253.081 39.8503 253.303 39.7701C253.524 39.69 253.727 39.5663 253.9 39.4064C254.073 39.2464 254.212 39.0535 254.309 38.8389C254.407 38.6243 254.46 38.3924 254.466 38.157V38.157ZM236.916 25.3772C236.916 24.9502 236.571 24.6094 236.144 24.6094C235.941 24.6094 235.745 24.6904 235.601 24.8344C235.457 24.9785 235.376 25.1738 235.376 25.3776C235.376 25.5813 235.457 25.7767 235.601 25.9207C235.745 26.0648 235.941 26.1457 236.144 26.1457C236.571 26.1457 236.917 25.8027 236.917 25.3764L236.916 25.3772ZM244.497 56.2974C244.357 56.322 244.224 56.3746 244.104 56.4519C243.985 56.5293 243.883 56.6298 243.803 56.7476C243.724 56.8654 243.668 56.9979 243.641 57.1374C243.614 57.2769 243.615 57.4205 243.644 57.5595C243.674 57.6986 243.731 57.8303 243.812 57.9469C243.894 58.0634 243.998 58.1624 244.118 58.2379C244.238 58.3134 244.373 58.364 244.513 58.3865C244.653 58.409 244.797 58.403 244.935 58.3689C245.201 58.3031 245.432 58.1362 245.578 57.9034C245.724 57.6707 245.774 57.3904 245.717 57.1216C245.66 56.8529 245.501 56.6167 245.274 56.4629C245.046 56.3091 244.768 56.2498 244.497 56.2974V56.2974ZM248.065 53.3423C247.898 53.3682 247.739 53.4268 247.595 53.5146C247.451 53.6024 247.327 53.7177 247.228 53.8539C247.128 53.9901 247.057 54.1444 247.018 54.3082C246.979 54.4719 246.972 54.6418 246.999 54.8081C247.025 54.9744 247.083 55.134 247.171 55.2776C247.259 55.4212 247.375 55.5461 247.511 55.645C247.647 55.7439 247.802 55.8149 247.965 55.854C248.129 55.893 248.299 55.8994 248.465 55.8726C248.633 55.848 248.794 55.7904 248.94 55.7031C249.085 55.6158 249.211 55.5005 249.312 55.364C249.412 55.2274 249.484 55.0723 249.524 54.9076C249.564 54.7428 249.571 54.5718 249.545 54.4044C249.518 54.237 249.459 54.0765 249.37 53.9323C249.281 53.788 249.164 53.6629 249.026 53.5641C248.889 53.4653 248.733 53.3948 248.567 53.3567C248.402 53.3187 248.231 53.3137 248.064 53.3423H248.065ZM250.819 49.4733C250.611 49.4952 250.409 49.558 250.224 49.658C250.04 49.7581 249.877 49.8935 249.745 50.0564C249.613 50.2194 249.515 50.4068 249.455 50.6079C249.396 50.8089 249.376 51.0198 249.398 51.2283C249.42 51.4369 249.483 51.6391 249.583 51.8233C249.683 52.0076 249.818 52.1704 249.981 52.3024C250.144 52.4343 250.332 52.5329 250.533 52.5925C250.734 52.652 250.945 52.6714 251.153 52.6495C251.565 52.5937 251.939 52.3798 252.195 52.053C252.452 51.7263 252.571 51.3125 252.528 50.8993C252.484 50.4862 252.281 50.1062 251.963 49.8399C251.644 49.5737 251.234 49.4422 250.819 49.4733V49.4733ZM252.611 45.1727C252.144 45.1977 251.707 45.4067 251.395 45.7538C251.083 46.1008 250.921 46.5576 250.945 47.0239C250.957 47.2553 251.014 47.4821 251.113 47.6912C251.213 47.9004 251.353 48.0878 251.525 48.2426C251.698 48.3974 251.899 48.5166 252.118 48.5934C252.336 48.6701 252.568 48.7028 252.799 48.6896C253.03 48.678 253.257 48.6209 253.465 48.5215C253.674 48.4222 253.861 48.2826 254.016 48.1107C254.171 47.9389 254.29 47.7381 254.367 47.5201C254.444 47.302 254.477 47.0708 254.465 46.8399C254.44 46.373 254.23 45.9351 253.882 45.6225C253.535 45.3099 253.077 45.1481 252.61 45.1727H252.611ZM236.144 58.8543C236.04 58.8496 235.937 58.8661 235.839 58.9027C235.742 58.9393 235.653 58.9952 235.578 59.0671C235.503 59.139 235.443 59.2253 235.402 59.321C235.361 59.4166 235.34 59.5195 235.34 59.6235C235.34 59.7275 235.361 59.8304 235.402 59.9261C235.443 60.0217 235.503 60.108 235.578 60.1799C235.653 60.2518 235.742 60.3077 235.839 60.3443C235.937 60.3809 236.04 60.3974 236.144 60.3928C236.248 60.3974 236.352 60.3809 236.449 60.3443C236.547 60.3077 236.636 60.2518 236.711 60.1799C236.786 60.108 236.846 60.0217 236.887 59.9261C236.927 59.8304 236.949 59.7275 236.949 59.6235C236.949 59.5195 236.927 59.4166 236.887 59.321C236.846 59.2253 236.786 59.139 236.711 59.0671C236.636 58.9952 236.547 58.9393 236.449 58.9027C236.352 58.8661 236.248 58.8496 236.144 58.8543V58.8543ZM219.006 44.4155C219.515 44.4145 220.001 44.2119 220.36 43.8522C220.719 43.4925 220.921 43.0051 220.92 42.4969C220.921 42.2456 220.871 41.9967 220.775 41.7645C220.679 41.5322 220.538 41.3212 220.36 41.1436C220.182 40.9659 219.971 40.8251 219.739 40.7291C219.507 40.6332 219.258 40.584 219.006 40.5844C218.498 40.5844 218.011 40.7862 217.652 41.1455C217.293 41.5047 217.091 41.9919 217.091 42.5C217.091 43.008 217.293 43.4952 217.652 43.8545C218.011 44.2137 218.498 44.4155 219.006 44.4155V44.4155ZM227.792 28.701C227.928 28.6724 228.057 28.6172 228.172 28.5386C228.287 28.46 228.385 28.3596 228.46 28.243C228.536 28.1264 228.588 27.996 228.613 27.8594C228.638 27.7227 228.636 27.5823 228.607 27.4465C228.578 27.3106 228.523 27.1817 228.444 27.0673C228.366 26.9529 228.265 26.8551 228.148 26.7796C228.032 26.7042 227.902 26.6524 227.765 26.6275C227.628 26.6025 227.488 26.6047 227.352 26.634C227.213 26.6596 227.081 26.7127 226.963 26.7902C226.845 26.8678 226.744 26.9683 226.665 27.0857C226.586 27.203 226.532 27.335 226.505 27.4737C226.479 27.6124 226.48 27.7551 226.509 27.8933C226.539 28.0314 226.596 28.1623 226.676 28.2782C226.757 28.3941 226.86 28.4926 226.98 28.5679C227.099 28.6432 227.233 28.6938 227.372 28.7166C227.512 28.7395 227.654 28.7342 227.792 28.701H227.792ZM224.226 31.6577C224.392 31.6313 224.552 31.5725 224.695 31.4845C224.839 31.3965 224.964 31.2811 225.063 31.1449C225.162 31.0087 225.233 30.8543 225.272 30.6906C225.312 30.5269 225.318 30.357 225.292 30.1907C225.265 30.0244 225.207 29.8649 225.119 29.7214C225.031 29.5778 224.915 29.453 224.779 29.3541C224.643 29.2551 224.488 29.1839 224.325 29.1446C224.161 29.1054 223.991 29.0987 223.825 29.125C223.489 29.1783 223.188 29.3627 222.988 29.6378C222.788 29.9129 222.706 30.2562 222.759 30.592C222.812 30.9279 222.997 31.2288 223.272 31.4287C223.547 31.6285 223.89 31.7109 224.226 31.6577V31.6577ZM221.467 35.5267C221.676 35.5048 221.878 35.4419 222.063 35.3418C222.247 35.2416 222.41 35.1062 222.542 34.943C222.674 34.7799 222.773 34.5924 222.833 34.3911C222.892 34.1899 222.912 33.9789 222.89 33.7701C222.868 33.5614 222.805 33.359 222.705 33.1745C222.605 32.99 222.469 32.8271 222.306 32.695C222.143 32.5629 221.956 32.4642 221.754 32.4046C221.553 32.3449 221.342 32.3255 221.133 32.3474C220.924 32.3688 220.721 32.4312 220.537 32.5312C220.352 32.6313 220.189 32.7668 220.056 32.9301C219.924 33.0935 219.825 33.2813 219.766 33.4829C219.707 33.6845 219.688 33.8958 219.711 34.1048C219.732 34.3136 219.795 34.516 219.895 34.7005C219.995 34.885 220.131 35.048 220.294 35.1802C220.457 35.3123 220.645 35.411 220.846 35.4705C221.047 35.5301 221.258 35.5495 221.467 35.5274V35.5267ZM219.678 39.8273C220.145 39.8022 220.582 39.5931 220.895 39.2457C221.207 38.8984 221.369 38.4412 221.345 37.9745C221.334 37.7431 221.276 37.5162 221.177 37.307C221.077 37.0978 220.937 36.9104 220.764 36.7555C220.592 36.6007 220.391 36.4815 220.172 36.4048C219.953 36.3282 219.722 36.2955 219.49 36.3088C219.259 36.3204 219.033 36.3775 218.824 36.4768C218.615 36.5761 218.427 36.7157 218.272 36.8875C218.117 37.0593 217.998 37.26 217.92 37.4781C217.843 37.6962 217.809 37.9274 217.821 38.1585C217.847 38.6257 218.057 39.0637 218.405 39.3765C218.753 39.6893 219.211 39.8514 219.678 39.8273V39.8273ZM226.538 57.1113C226.479 57.3858 226.531 57.6725 226.684 57.9083C226.836 58.144 227.076 58.3096 227.351 58.3685C227.625 58.4275 227.912 58.375 228.147 58.2225C228.383 58.0701 228.549 57.8303 228.608 57.5558C228.637 57.4198 228.639 57.2795 228.614 57.1428C228.589 57.006 228.537 56.8755 228.462 56.7588C228.386 56.6421 228.289 56.5413 228.174 56.4623C228.06 56.3834 227.931 56.3277 227.795 56.2985C227.659 56.2693 227.519 56.2672 227.382 56.2923C227.245 56.3173 227.115 56.3691 226.998 56.4445C226.881 56.52 226.781 56.6177 226.702 56.7321C226.623 56.8466 226.567 56.9754 226.538 57.1113V57.1113ZM222.76 54.4083C222.733 54.5745 222.739 54.7443 222.778 54.9079C222.817 55.0716 222.888 55.226 222.987 55.3621C223.086 55.4983 223.211 55.6135 223.355 55.7013C223.498 55.789 223.658 55.8475 223.824 55.8734C224.16 55.9266 224.503 55.8443 224.778 55.6447C225.052 55.4451 225.237 55.1444 225.29 54.8088C225.343 54.4733 225.261 54.1303 225.061 53.8554C224.862 53.5806 224.561 53.3962 224.225 53.343C224.059 53.3167 223.89 53.3234 223.726 53.3627C223.562 53.402 223.408 53.4731 223.272 53.572C223.136 53.671 223.021 53.7958 222.933 53.9393C222.845 54.0827 222.787 54.2421 222.76 54.4083H222.76ZM219.713 50.8952C219.69 51.1038 219.709 51.3147 219.769 51.516C219.828 51.7172 219.927 51.9047 220.059 52.0677C220.191 52.2308 220.354 52.3661 220.538 52.4659C220.723 52.5657 220.925 52.6281 221.134 52.6495C221.343 52.672 221.554 52.6531 221.755 52.5939C221.956 52.5346 222.144 52.4362 222.307 52.3042C222.471 52.1722 222.606 52.0093 222.706 51.8248C222.806 51.6403 222.869 51.4379 222.891 51.2291C222.934 50.8075 222.809 50.3858 222.542 50.0566C222.275 49.7273 221.889 49.5175 221.467 49.4733C221.259 49.4511 221.048 49.4704 220.846 49.5299C220.645 49.5894 220.458 49.6881 220.295 49.8202C220.132 49.9523 219.997 50.1152 219.897 50.2997C219.797 50.4841 219.734 50.6865 219.713 50.8952V50.8952ZM217.821 46.8407C217.81 47.0716 217.843 47.3027 217.921 47.5206C217.998 47.7385 218.118 47.9391 218.273 48.1108C218.428 48.2824 218.615 48.4219 218.824 48.5213C219.033 48.6206 219.259 48.6778 219.49 48.6896C219.722 48.7028 219.953 48.6701 220.172 48.5934C220.391 48.5167 220.592 48.3975 220.765 48.2427C220.937 48.0879 221.077 47.9005 221.177 47.6914C221.277 47.4822 221.334 47.2553 221.346 47.0239C221.37 46.5565 221.208 46.0986 220.895 45.751C220.581 45.4033 220.143 45.1943 219.675 45.17C219.208 45.1457 218.75 45.3081 218.402 45.6214C218.055 45.9347 217.846 46.3733 217.821 46.8407V46.8407ZM240.366 58.241C240.261 58.2691 240.163 58.3175 240.077 58.3835C239.991 58.4496 239.919 58.5319 239.865 58.6258C239.811 58.7198 239.775 58.8235 239.761 58.931C239.747 59.0385 239.754 59.1478 239.782 59.2525C239.811 59.3573 239.859 59.4554 239.925 59.5415C239.991 59.6275 240.073 59.6997 240.167 59.7539C240.261 59.8081 240.365 59.8433 240.472 59.8574C240.58 59.8715 240.689 59.8644 240.794 59.8363C240.996 59.7714 241.166 59.6312 241.267 59.4448C241.369 59.2584 241.395 59.0399 241.34 58.8348C241.285 58.6297 241.153 58.4537 240.972 58.3431C240.791 58.2325 240.574 58.196 240.366 58.241V58.241ZM231.922 58.241C231.817 58.2129 231.708 58.2057 231.6 58.2198C231.493 58.234 231.389 58.2691 231.295 58.3233C231.201 58.3776 231.119 58.4497 231.053 58.5358C230.987 58.6218 230.938 58.72 230.91 58.8247C230.882 58.9295 230.875 59.0387 230.889 59.1463C230.903 59.2538 230.938 59.3575 230.993 59.4514C231.047 59.5453 231.119 59.6277 231.205 59.6937C231.291 59.7597 231.389 59.8082 231.494 59.8363C231.599 59.8646 231.708 59.8719 231.816 59.8579C231.924 59.8439 232.028 59.8088 232.122 59.7546C232.216 59.7004 232.299 59.6281 232.365 59.542C232.432 59.4558 232.48 59.3575 232.509 59.2525C232.536 59.1476 232.543 59.0381 232.529 58.9305C232.515 58.8229 232.479 58.7191 232.425 58.6252C232.37 58.5313 232.298 58.449 232.211 58.3831C232.125 58.3171 232.027 58.2688 231.922 58.241V58.241ZM241.382 26.1745C241.41 26.0695 241.417 25.9601 241.403 25.8524C241.388 25.7447 241.353 25.641 241.298 25.5471C241.243 25.4532 241.171 25.371 241.084 25.3054C240.998 25.2397 240.899 25.1918 240.794 25.1644C240.585 25.1153 240.365 25.1495 240.181 25.2596C239.997 25.3698 239.863 25.5473 239.808 25.7546C239.752 25.9618 239.78 26.1825 239.884 26.3699C239.989 26.5572 240.162 26.6965 240.368 26.7582C240.579 26.8152 240.805 26.7858 240.995 26.6765C241.185 26.5671 241.324 26.3869 241.382 26.1752V26.1745ZM232.509 25.7467C232.481 25.6417 232.433 25.5433 232.366 25.4572C232.3 25.371 232.217 25.2988 232.123 25.2447C232.029 25.1906 231.925 25.1557 231.817 25.1419C231.709 25.1281 231.6 25.1358 231.495 25.1644C231.054 25.281 230.791 25.7323 230.909 26.1729C230.972 26.3785 231.112 26.5517 231.299 26.6562C231.487 26.7606 231.708 26.7881 231.915 26.7328C232.123 26.6775 232.301 26.5438 232.412 26.3598C232.522 26.1758 232.557 25.956 232.509 25.7467V25.7467ZM249.026 38.5818C248.66 38.7382 248.248 38.7434 247.879 38.5964C247.51 38.4494 247.215 38.162 247.057 37.7974C246.979 37.6168 246.937 37.4227 246.935 37.2261C246.932 37.0295 246.968 36.8342 247.041 36.6516C247.114 36.469 247.222 36.3025 247.359 36.1619C247.497 36.0212 247.661 35.909 247.841 35.8318C248.022 35.7537 248.216 35.7119 248.413 35.7089C248.609 35.7059 248.804 35.7417 248.987 35.8143C249.17 35.8869 249.336 35.9948 249.477 36.1319C249.618 36.269 249.731 36.4325 249.809 36.6132C249.966 36.9781 249.971 37.3904 249.825 37.7596C249.678 38.1287 249.39 38.4244 249.026 38.5818V38.5818ZM238.509 29.0584C238.488 28.9518 238.446 28.8504 238.386 28.76C238.326 28.6696 238.249 28.5921 238.158 28.5317C238.068 28.4714 237.967 28.4296 237.86 28.4086C237.754 28.3876 237.644 28.3879 237.537 28.4095C237.377 28.4416 237.231 28.5203 237.115 28.6358C237 28.7514 236.922 28.8985 236.89 29.0585C236.858 29.2186 236.875 29.3845 236.937 29.5352C237 29.6859 237.106 29.8147 237.241 29.9053C237.377 29.9958 237.537 30.0441 237.7 30.044C237.863 30.044 238.023 29.9955 238.158 29.9048C238.294 29.8141 238.4 29.6852 238.462 29.5344C238.524 29.3836 238.541 29.2177 238.509 29.0577V29.0584ZM242.057 29.8284C242.024 29.701 241.967 29.5813 241.888 29.476C241.81 29.3707 241.711 29.2821 241.598 29.215C241.485 29.148 241.36 29.1039 241.229 29.0854C241.099 29.0668 240.967 29.0741 240.839 29.1069C240.712 29.139 240.592 29.196 240.487 29.2747C240.381 29.3533 240.292 29.452 240.225 29.5651C240.158 29.6781 240.114 29.8034 240.095 29.9335C240.077 30.0637 240.084 30.1963 240.117 30.3236C240.253 30.8589 240.8 31.183 241.335 31.0436C241.592 30.9782 241.812 30.8133 241.948 30.5855C242.083 30.3576 242.122 30.0853 242.057 29.8284V29.8284ZM245.328 31.4056C245.279 31.249 245.2 31.1036 245.095 30.9777C244.99 30.8518 244.862 30.7479 244.716 30.6719C244.571 30.5959 244.412 30.5493 244.249 30.5349C244.086 30.5205 243.921 30.5385 243.765 30.5878C243.608 30.6363 243.463 30.7151 243.337 30.8198C243.211 30.9245 243.107 31.0531 243.031 31.1981C242.954 31.3432 242.908 31.5018 242.893 31.665C242.878 31.8282 242.895 31.9927 242.944 32.1491C243.044 32.4645 243.264 32.7277 243.558 32.8809C243.851 33.0342 244.193 33.065 244.509 32.9668C244.824 32.8683 245.088 32.6485 245.241 32.3558C245.395 32.063 245.426 31.7212 245.328 31.4056ZM247.936 33.7292C247.874 33.5597 247.778 33.4042 247.656 33.2715C247.533 33.1389 247.386 33.0317 247.222 32.9562C247.057 32.8807 246.88 32.8382 246.7 32.8314C246.519 32.8245 246.339 32.8532 246.17 32.9161C246 32.9781 245.844 33.0731 245.711 33.1956C245.578 33.3181 245.47 33.4658 245.394 33.63C245.319 33.7943 245.276 33.9719 245.269 34.1526C245.262 34.3334 245.291 34.5137 245.354 34.6832C245.49 35.0123 245.749 35.2759 246.075 35.4186C246.401 35.5614 246.77 35.5721 247.104 35.4487C247.438 35.3253 247.712 35.0772 247.867 34.7566C248.022 34.436 248.047 34.0678 247.936 33.7292V33.7292ZM231.399 29.9882C231.367 29.9153 231.322 29.8493 231.266 29.794C231.209 29.7386 231.142 29.6951 231.068 29.6658C230.995 29.6365 230.916 29.6221 230.837 29.6234C230.757 29.6246 230.679 29.6416 230.607 29.6732C230.534 29.7042 230.468 29.7493 230.413 29.8059C230.357 29.8625 230.314 29.9295 230.285 30.003C230.256 30.0765 230.241 30.155 230.243 30.2341C230.244 30.3131 230.261 30.3912 230.292 30.4637C230.424 30.7665 230.779 30.9058 231.084 30.7756C231.156 30.7447 231.222 30.6997 231.277 30.6434C231.332 30.587 231.375 30.5204 231.404 30.4472C231.434 30.3741 231.448 30.2959 231.447 30.2171C231.446 30.1384 231.43 30.0605 231.399 29.9882V29.9882ZM246.404 49.8125C246.315 49.8753 246.24 49.955 246.182 50.0469C246.124 50.1388 246.085 50.2412 246.067 50.3483C246.049 50.4553 246.052 50.5649 246.076 50.6708C246.1 50.7766 246.145 50.8767 246.208 50.9652C246.271 51.0537 246.35 51.129 246.442 51.1868C246.534 51.2446 246.637 51.2836 246.744 51.3018C246.851 51.32 246.96 51.3169 247.066 51.2927C247.172 51.2685 247.272 51.2238 247.361 51.1609C247.539 51.034 247.661 50.8413 247.697 50.6251C247.734 50.4089 247.683 50.187 247.556 50.0082C247.429 49.8294 247.237 49.7083 247.021 49.6716C246.804 49.6349 246.582 49.6855 246.404 49.8125V49.8125ZM248.047 46.5908C247.936 46.6611 247.839 46.7526 247.764 46.8601C247.688 46.9675 247.634 47.0889 247.605 47.2171C247.576 47.3454 247.573 47.4781 247.595 47.6077C247.618 47.7372 247.666 47.8611 247.736 47.9722C247.806 48.0833 247.898 48.1795 248.005 48.2553C248.113 48.331 248.234 48.3849 248.362 48.4137C248.49 48.4426 248.623 48.4459 248.753 48.4235C248.882 48.401 249.006 48.3533 249.117 48.283C249.342 48.1412 249.5 47.916 249.559 47.657C249.617 47.398 249.57 47.1264 249.428 46.902C249.287 46.6776 249.061 46.5187 248.802 46.4604C248.543 46.402 248.272 46.4489 248.047 46.5908H248.047ZM248.825 42.9664C248.682 43.0466 248.556 43.1542 248.455 43.283C248.354 43.4118 248.279 43.5593 248.235 43.7171C248.19 43.8749 248.177 44.0398 248.197 44.2025C248.216 44.3652 248.268 44.5225 248.348 44.6654C248.511 44.9533 248.781 45.1649 249.1 45.2536C249.418 45.3424 249.759 45.301 250.047 45.1386C250.325 44.9716 250.528 44.7026 250.611 44.3887C250.694 44.0749 250.652 43.741 250.492 43.458C250.333 43.175 250.07 42.9652 249.759 42.8733C249.447 42.7813 249.112 42.8145 248.825 42.9656V42.9664ZM248.777 39.3306C248.451 39.4931 248.203 39.7781 248.086 40.1233C247.97 40.4685 247.995 40.8458 248.156 41.1727C248.236 41.3349 248.347 41.4797 248.483 41.5988C248.619 41.7178 248.778 41.8088 248.949 41.8665C249.121 41.9242 249.302 41.9474 249.482 41.9349C249.663 41.9224 249.839 41.8744 250.001 41.7936C250.163 41.7138 250.308 41.6029 250.427 41.4671C250.546 41.3312 250.637 41.1732 250.694 41.0021C250.752 40.831 250.776 40.6501 250.763 40.47C250.751 40.2898 250.703 40.1138 250.622 39.9522C250.459 39.6261 250.173 39.3779 249.828 39.2616C249.482 39.1453 249.105 39.1704 248.777 39.3313V39.3306ZM241.207 54.2258C241.061 54.2889 240.946 54.4074 240.887 54.5554C240.828 54.7033 240.831 54.8686 240.894 55.0148C240.957 55.161 241.076 55.2761 241.223 55.3349C241.371 55.3937 241.537 55.3913 241.683 55.3282C241.757 55.2981 241.824 55.2535 241.881 55.1971C241.937 55.1407 241.982 55.0735 242.012 54.9996C242.042 54.9256 242.058 54.8464 242.057 54.7665C242.056 54.6866 242.039 54.6077 242.008 54.5343C241.976 54.461 241.93 54.3947 241.873 54.3393C241.815 54.2839 241.747 54.2406 241.672 54.2119C241.598 54.1831 241.518 54.1696 241.438 54.172C241.359 54.1744 241.28 54.1927 241.207 54.2258V54.2258ZM224.45 49.1689C224.635 49.0936 224.802 48.9823 224.943 48.8414C225.084 48.7005 225.195 48.533 225.271 48.3485C225.346 48.1641 225.384 47.9665 225.381 47.7673C225.379 47.5681 225.338 47.3713 225.258 47.1885C225.179 47.0057 225.064 46.8405 224.921 46.7026C224.777 46.5647 224.607 46.4569 224.421 46.3856C224.235 46.3142 224.037 46.2806 223.838 46.2869C223.639 46.2931 223.443 46.339 223.262 46.422C222.906 46.585 222.628 46.881 222.487 47.2465C222.347 47.6121 222.355 48.0181 222.511 48.3775C222.666 48.7369 222.957 49.021 223.319 49.1689C223.682 49.3169 224.088 49.3168 224.45 49.1689V49.1689ZM225.886 35.1867C226.064 35.0602 226.185 34.868 226.222 34.6523C226.259 34.4366 226.208 34.2151 226.082 34.0366C226.019 33.9482 225.94 33.873 225.848 33.8153C225.756 33.7577 225.654 33.7186 225.547 33.7004C225.332 33.6636 225.11 33.714 224.932 33.8405C224.843 33.9028 224.767 33.9822 224.709 34.074C224.65 34.1658 224.611 34.2682 224.592 34.3754C224.574 34.4825 224.577 34.5922 224.601 34.6982C224.625 34.8042 224.67 34.9044 224.733 34.9929C224.998 35.3624 225.514 35.4517 225.886 35.1867ZM224.243 38.4091C224.359 38.3412 224.46 38.2507 224.54 38.1429C224.62 38.0351 224.678 37.9123 224.71 37.7818C224.742 37.6512 224.747 37.5156 224.725 37.383C224.704 37.2504 224.655 37.1235 224.584 37.0099C224.512 36.8962 224.418 36.7982 224.308 36.7216C224.197 36.645 224.073 36.5915 223.941 36.564C223.809 36.5366 223.674 36.536 223.542 36.5621C223.41 36.5883 223.285 36.6406 223.174 36.7162C222.957 36.8615 222.805 37.0857 222.751 37.341C222.697 37.5964 222.745 37.8627 222.885 38.0834C223.024 38.304 223.244 38.4615 223.498 38.5224C223.752 38.5832 224.019 38.5426 224.244 38.4091H224.243ZM223.464 42.0343C223.752 41.8722 223.964 41.6022 224.053 41.2838C224.142 40.9654 224.101 40.6246 223.939 40.3364C223.777 40.0483 223.507 39.8363 223.188 39.7472C222.87 39.6581 222.529 39.6992 222.241 39.8613C222.098 39.9409 221.972 40.048 221.87 40.1765C221.769 40.305 221.694 40.4523 221.649 40.61C221.605 40.7676 221.592 40.9325 221.612 41.0951C221.632 41.2577 221.683 41.4148 221.764 41.5573C221.926 41.8459 222.196 42.0583 222.515 42.1478C222.834 42.2372 223.175 42.1964 223.464 42.0343V42.0343ZM223.511 45.6701C223.673 45.5902 223.817 45.479 223.936 45.3431C224.055 45.2072 224.147 45.0491 224.204 44.8779C224.262 44.7067 224.286 44.5258 224.274 44.3455C224.262 44.1653 224.214 43.9891 224.134 43.8272C224.054 43.6648 223.942 43.5197 223.806 43.4005C223.67 43.2812 223.511 43.19 223.34 43.1323C223.168 43.0745 222.987 43.0512 222.806 43.0638C222.625 43.0764 222.449 43.1246 222.287 43.2056C221.96 43.368 221.711 43.6535 221.595 43.9994C221.479 44.3453 221.505 44.7232 221.667 45.05C221.829 45.3768 222.115 45.6258 222.461 45.7421C222.807 45.8584 223.185 45.8325 223.511 45.6701H223.511ZM233.779 55.9446C233.8 56.0512 233.842 56.1527 233.902 56.2432C233.962 56.3338 234.039 56.4115 234.13 56.472C234.22 56.5325 234.321 56.5746 234.428 56.5959C234.535 56.6172 234.644 56.6172 234.751 56.596C234.858 56.5748 234.959 56.5327 235.049 56.4723C235.14 56.4118 235.217 56.3341 235.277 56.2436C235.338 56.1531 235.379 56.0516 235.4 55.945C235.421 55.8383 235.421 55.7286 235.399 55.622C235.356 55.4077 235.229 55.2194 235.047 55.0982C234.865 54.9771 234.643 54.933 234.428 54.9757C234.214 55.0184 234.025 55.1443 233.904 55.3259C233.782 55.5075 233.737 55.73 233.779 55.9446V55.9446ZM230.235 55.1723C230.37 55.7098 230.915 56.0301 231.452 55.8938C231.709 55.828 231.929 55.6627 232.064 55.4344C232.199 55.206 232.238 54.9334 232.172 54.6763C232.107 54.4193 231.941 54.199 231.713 54.0638C231.485 53.9286 231.212 53.8897 230.955 53.9555C230.828 53.9881 230.708 54.0454 230.603 54.1242C230.498 54.203 230.41 54.3017 230.343 54.4147C230.276 54.5277 230.232 54.6528 230.213 54.7828C230.195 54.9127 230.202 55.0451 230.235 55.1723V55.1723ZM226.961 53.5951C227.009 53.7517 227.088 53.8971 227.193 54.0231C227.298 54.149 227.427 54.2528 227.572 54.3287C227.718 54.4046 227.876 54.451 228.04 54.4651C228.203 54.4793 228.368 54.461 228.524 54.4113C228.68 54.3634 228.826 54.285 228.952 54.1805C229.079 54.076 229.183 53.9475 229.259 53.8026C229.336 53.6576 229.383 53.4989 229.397 53.3357C229.412 53.1725 229.394 53.008 229.345 52.8516C229.246 52.5355 229.025 52.2717 228.731 52.1181C228.438 51.9646 228.095 51.9337 227.779 52.0324C227.622 52.0812 227.477 52.1604 227.351 52.2654C227.226 52.3704 227.122 52.4991 227.046 52.6442C226.97 52.7894 226.923 52.9481 226.909 53.1112C226.894 53.2744 226.912 53.4388 226.961 53.5951V53.5951ZM224.352 51.2692C224.414 51.439 224.509 51.5949 224.632 51.7278C224.755 51.8606 224.903 51.968 225.067 52.0435C225.231 52.1191 225.409 52.1614 225.59 52.1681C225.771 52.1748 225.951 52.1456 226.121 52.0824C226.453 51.949 226.72 51.6911 226.865 51.3637C227.011 51.0362 227.022 50.6651 226.898 50.3292C226.774 49.9932 226.523 49.7191 226.2 49.565C225.876 49.411 225.506 49.3892 225.167 49.5043C224.825 49.6307 224.547 49.8875 224.394 50.2184C224.242 50.5492 224.226 50.9271 224.352 51.2692V51.2692ZM244.042 52.4821C243.909 52.5887 243.823 52.7436 243.803 52.9132C243.783 53.0828 243.831 53.2534 243.937 53.3877C243.99 53.4544 244.055 53.51 244.129 53.5514C244.203 53.5929 244.285 53.6193 244.369 53.6292C244.453 53.6391 244.539 53.6323 244.621 53.6092C244.702 53.5861 244.779 53.5471 244.845 53.4944C244.912 53.4418 244.968 53.3765 245.009 53.3024C245.051 53.2282 245.077 53.1466 245.087 53.0623C245.097 52.9779 245.09 52.8924 245.067 52.8107C245.044 52.7289 245.005 52.6525 244.952 52.5859C244.845 52.452 244.689 52.366 244.519 52.3466C244.348 52.3272 244.177 52.3759 244.042 52.4821V52.4821ZM237.989 55.0897C237.82 55.115 237.667 55.2062 237.565 55.3434C237.463 55.4806 237.419 55.6526 237.444 55.8219C237.456 55.9058 237.485 55.9865 237.528 56.0593C237.571 56.1321 237.629 56.1955 237.697 56.2461C237.765 56.2966 237.843 56.3331 237.925 56.3536C238.007 56.3741 238.093 56.3782 238.177 56.3655C238.341 56.3359 238.488 56.2433 238.586 56.1072C238.684 55.9712 238.725 55.8024 238.701 55.6367C238.676 55.4709 238.588 55.3211 238.455 55.219C238.323 55.1169 238.155 55.0706 237.989 55.0897V55.0897ZM234.847 29.178C234.834 29.0941 234.805 29.0135 234.762 28.9408C234.718 28.8681 234.66 28.8047 234.592 28.7543C234.524 28.7038 234.446 28.6674 234.364 28.6469C234.282 28.6265 234.196 28.6225 234.112 28.6352C234.025 28.6439 233.941 28.6701 233.865 28.7122C233.788 28.7543 233.721 28.8115 233.668 28.8803C233.614 28.9491 233.575 29.028 233.553 29.1124C233.53 29.1967 233.526 29.2847 233.538 29.371C233.551 29.4573 233.581 29.5402 233.627 29.6145C233.672 29.6889 233.733 29.7532 233.804 29.8036C233.875 29.854 233.956 29.8894 234.041 29.9077C234.126 29.9261 234.214 29.9269 234.3 29.9102C234.652 29.8572 234.898 29.5316 234.847 29.178V29.178Z" fill="#9C9C9C"/>
</g>
</g>
<g clip-path="url(#clip2_1_26)">
<g clip-path="url(#clip3_1_26)">
<path fill-rule="evenodd" clip-rule="evenodd" d="M411.155 23.4062H420.009C424.266 23.4062 425.173 26.0855 425.173 27.9311C425.173 29.7505 424.38 30.7363 423.18 31.4691C424.629 32.0245 425.988 33.3147 425.988 35.9677C425.988 39.5833 423.18 41.4531 420.327 41.4531H411.153V23.4062H411.155ZM416.136 30.4339H418.763C419.805 30.4339 420.463 30.1043 420.463 28.9411C420.463 28.0309 419.782 27.7033 418.763 27.7033H416.137V30.4319L416.136 30.4339ZM416.136 37.1561H419.058C420.1 37.1561 421.006 36.8275 421.006 35.4375C421.006 34.3761 420.439 33.7945 419.262 33.7945H416.137V37.1561H416.136Z" fill="#9C9C9C"/>
<path fill-rule="evenodd" clip-rule="evenodd" d="M426.429 23.4062H430.913V41.4531H426.429V23.4062Z" fill="#9C9C9C"/>
<path fill-rule="evenodd" clip-rule="evenodd" d="M438.304 41.7817C433.888 41.7817 431.895 38.5209 431.895 34.8811C431.895 31.2413 433.888 28.0057 438.304 28.0057C442.72 28.0057 444.712 31.2413 444.712 34.8811C444.712 38.5209 442.72 41.7817 438.304 41.7817V41.7817ZM438.304 31.6465C436.606 31.6465 436.379 33.4911 436.379 34.8811C436.379 36.2711 436.606 38.1419 438.304 38.1419C440.002 38.1419 440.229 36.2711 440.229 34.8811C440.229 33.4911 440.002 31.6465 438.304 31.6465Z" fill="#9C9C9C"/>
<path fill-rule="evenodd" clip-rule="evenodd" d="M452.17 41.7817C447.754 41.7817 445.761 38.5209 445.761 34.8811C445.761 31.2413 447.754 28.0057 452.17 28.0057C456.586 28.0057 458.579 31.2413 458.579 34.8811C458.579 38.5209 456.586 41.7817 452.17 41.7817ZM452.17 31.6465C450.471 31.6465 450.245 33.4911 450.245 34.8811C450.245 36.2711 450.471 38.1419 452.17 38.1419C453.868 38.1419 454.095 36.2711 454.095 34.8811C454.095 33.4911 453.868 31.6465 452.17 31.6465Z" fill="#9C9C9C"/>
<path fill-rule="evenodd" clip-rule="evenodd" d="M460.139 28.3352H464.465V30.0791H464.51C465.416 28.5621 466.729 28.0057 468.36 28.0057C469.628 28.0057 470.987 28.7395 471.53 30.0539C471.712 29.9017 472.617 28.0057 475.539 28.0057C478.551 28.0057 479.57 30.3321 479.57 32.4549V41.4531H475.086V34.3509C475.086 33.1121 474.973 31.9993 473.614 31.9993C472.481 31.9993 472.097 32.9851 472.097 34.3509V41.4531H467.612V34.3509C467.612 33.1121 467.5 31.9993 466.141 31.9993C465.008 31.9993 464.623 32.9851 464.623 34.3509V41.4531H460.139V28.3352Z" fill="#9C9C9C"/>
<path fill-rule="evenodd" clip-rule="evenodd" d="M481.22 23.4062H485.704V29.7757H485.749C486.429 28.6639 487.629 28.0057 488.966 28.0057C492.905 28.0057 493.97 31.7473 493.97 34.8307C493.97 38.1167 492.361 41.7808 489.033 41.7808C486.836 41.7808 486.157 40.8463 485.591 40.0118H485.545V41.4531H481.22V23.4062V23.4062ZM487.516 31.6465C485.908 31.6465 485.545 33.3399 485.545 34.8811C485.545 36.4485 485.908 38.1419 487.516 38.1419C489.124 38.1419 489.486 36.4485 489.486 34.8811C489.486 33.3399 489.124 31.6465 487.516 31.6465V31.6465Z" fill="#9C9C9C"/>
<path fill-rule="evenodd" clip-rule="evenodd" d="M499.198 36.0181C499.311 37.5099 500.08 38.5713 501.486 38.5713C502.21 38.5713 503.003 38.2679 503.365 37.6359H507.554C506.648 40.4673 504.18 41.7817 501.508 41.7817C497.749 41.7817 494.916 39.3051 494.916 34.9325C494.916 31.1153 497.409 28.0057 501.123 28.0057C505.787 28.0057 507.804 30.9127 507.804 36.0181H499.199H499.198ZM503.501 33.4145C503.501 32.2029 502.685 31.2161 501.53 31.2161C500.194 31.2161 499.424 31.9993 499.22 33.4145H503.501V33.4145Z" fill="#9C9C9C"/>
<path fill-rule="evenodd" clip-rule="evenodd" d="M508.759 28.3352H513.063V30.4319H513.108C513.833 28.8645 514.785 28.0047 516.415 28.0047C516.868 28.0047 517.297 28.0813 517.728 28.2083V32.6303C517.276 32.4539 516.868 32.3027 515.961 32.3027C514.195 32.3027 513.244 33.4649 513.244 36.2701V41.4521H508.759V28.3352" fill="#9C9C9C"/>
<path fill-rule="evenodd" clip-rule="evenodd" d="M530.926 39.7597C530.926 42.3633 530.315 46.0274 524.811 46.0274C522.027 46.0274 519.082 45.1937 518.675 41.6557H523.113C523.158 41.7817 523.271 41.9581 523.362 42.1103C523.634 42.5659 524.109 43.07 524.676 43.07C526.125 43.07 526.442 41.1497 526.442 40.0631V38.8495H526.396C525.672 40.0127 524.585 40.6689 523.249 40.6689C519.784 40.6689 518.221 37.7881 518.221 34.2743C518.221 30.8623 519.966 28.0057 523.317 28.0057C524.631 28.0057 525.876 28.5873 526.396 29.9278H526.442V28.3352H530.926V39.7597V39.7597ZM524.721 37.4595C526.375 37.4595 526.556 35.6905 526.556 34.2239C526.556 32.7835 525.922 31.6465 524.608 31.6465C523.34 31.6465 522.706 32.8591 522.706 34.2491C522.706 35.7409 523.113 37.4595 524.722 37.4595H524.721Z" fill="#9C9C9C"/>
<path fill-rule="evenodd" clip-rule="evenodd" d="M411.155 42.9265H420.009C424.266 42.9265 425.173 45.6057 425.173 47.4513C425.173 49.2717 424.38 50.2565 423.18 50.9894C424.629 51.5467 425.988 52.835 425.988 55.4899C425.988 59.1036 423.18 60.9744 420.327 60.9744H411.153V42.9265H411.155ZM416.136 49.9541H418.763C419.805 49.9541 420.463 49.6255 420.463 48.4623C420.463 47.5531 419.782 47.2235 418.763 47.2235H416.137V49.9541H416.136ZM416.136 56.6774H419.058C420.1 56.6774 421.006 56.3478 421.006 54.9587C421.006 53.8973 420.439 53.3157 419.262 53.3157H416.137V56.6774H416.136Z" fill="#9C9C9C"/>
<path fill-rule="evenodd" clip-rule="evenodd" d="M438.659 60.9744H434.334V59.3062H434.288C433.45 60.6206 432.25 61.303 430.46 61.303C428.354 61.303 426.429 59.8616 426.429 56.8538V47.8555H430.913V54.731C430.913 56.247 431.073 57.3094 432.386 57.3094C433.156 57.3094 434.175 56.8799 434.175 54.7814V47.8555H438.659V60.9753" fill="#9C9C9C"/>
<path fill-rule="evenodd" clip-rule="evenodd" d="M446.676 51.6727C446.668 51.48 446.616 51.2916 446.526 51.1211C446.436 50.9506 446.309 50.8023 446.155 50.6869C445.882 50.4396 445.526 50.3043 445.158 50.3079C444.524 50.3079 443.8 50.4591 443.8 51.3189C443.8 51.697 444.071 51.8743 444.321 52.0013C445.068 52.3551 446.766 52.4569 448.261 53.0114C449.756 53.5435 451.069 54.5293 451.069 56.6774C451.069 60.3172 447.944 61.303 445.09 61.303C442.328 61.303 439.294 60.0642 439.225 56.6774H443.505C443.528 57.1329 443.709 57.511 444.048 57.8405C444.275 58.0674 444.705 58.2186 445.249 58.2186C445.838 58.2186 446.766 57.9666 446.766 57.2076C446.766 56.4496 446.381 56.2218 444.298 55.8176C440.878 55.1604 439.496 53.9468 439.496 51.6979C439.496 48.3867 442.69 47.5279 445.045 47.5279C447.581 47.5279 450.639 48.3111 450.752 51.6727H446.676" fill="#9C9C9C"/>
<path fill-rule="evenodd" clip-rule="evenodd" d="M452.17 43.5556H456.654V47.0684H452.17V43.5566V43.5556ZM452.17 47.8555H456.654V60.9753H452.17V47.8555Z" fill="#9C9C9C"/>
<path fill-rule="evenodd" clip-rule="evenodd" d="M457.843 47.8555H462.169V49.5247H462.213C463.052 48.2093 464.252 47.5279 466.041 47.5279C468.148 47.5279 470.072 48.9683 470.072 51.9771V60.9744H465.588V54.0999C465.588 52.582 465.43 51.5215 464.116 51.5215C463.345 51.5215 462.327 51.9509 462.327 54.0485V60.9744H457.843V47.8555" fill="#9C9C9C"/>
<path fill-rule="evenodd" clip-rule="evenodd" d="M475.612 55.5403C475.726 57.0302 476.495 58.0926 477.9 58.0926C478.625 58.0926 479.418 57.7892 479.779 57.1572H483.97C483.064 59.9876 480.595 61.303 477.922 61.303C474.163 61.303 471.333 58.8254 471.333 54.4528C471.333 50.6365 473.824 47.5279 477.538 47.5279C482.203 47.5279 484.218 50.4339 484.218 55.5403H475.612ZM479.916 52.9367C479.916 51.7231 479.1 50.7364 477.945 50.7364C476.61 50.7364 475.839 51.5215 475.636 52.9367H479.916Z" fill="#9C9C9C"/>
<path fill-rule="evenodd" clip-rule="evenodd" d="M492.54 51.6727C492.531 51.4802 492.481 51.2919 492.391 51.1214C492.301 50.9509 492.174 50.8025 492.02 50.6869C491.747 50.4396 491.391 50.3042 491.023 50.3079C490.389 50.3079 489.664 50.4591 489.664 51.3189C489.664 51.697 489.935 51.8743 490.185 52.0013C490.932 52.3551 492.631 52.4569 494.125 53.0114C495.62 53.5435 496.934 54.5293 496.934 56.6774C496.934 60.3172 493.808 61.303 490.955 61.303C488.192 61.303 485.157 60.0642 485.089 56.6774H489.369C489.392 57.1329 489.573 57.511 489.913 57.8405C490.14 58.0674 490.57 58.2186 491.113 58.2186C491.702 58.2186 492.631 57.9666 492.631 57.2076C492.631 56.4496 492.246 56.2218 490.162 55.8176C486.743 55.1604 485.361 53.9468 485.361 51.6979C485.361 48.3867 488.555 47.5279 490.909 47.5279C493.446 47.5279 496.504 48.3111 496.617 51.6727H492.541" fill="#9C9C9C"/>
<path fill-rule="evenodd" clip-rule="evenodd" d="M504.876 51.6727C504.868 51.48 504.817 51.2916 504.726 51.1211C504.636 50.9506 504.509 50.8023 504.355 50.6869C504.082 50.4396 503.726 50.3043 503.358 50.3079C502.725 50.3079 502 50.4591 502 51.3189C502 51.697 502.272 51.8743 502.522 52.0013C503.268 52.3551 504.966 52.4569 506.461 53.0114C507.956 53.5435 509.269 54.5293 509.269 56.6774C509.269 60.3172 506.145 61.303 503.291 61.303C500.529 61.303 497.493 60.0642 497.425 56.6774H501.706C501.729 57.1329 501.909 57.511 502.248 57.8405C502.475 58.0674 502.906 58.2186 503.449 58.2186C504.039 58.2186 504.966 57.9666 504.966 57.2076C504.966 56.4496 504.582 56.2218 502.498 55.8176C499.079 55.1604 497.697 53.9468 497.697 51.6979C497.697 48.3867 500.89 47.5279 503.246 47.5279C505.783 47.5279 508.839 48.3111 508.953 51.6727H504.876" fill="#9C9C9C"/>
<path fill-rule="evenodd" clip-rule="evenodd" d="M525.621 60.9744H521.023L519.325 52.9115H519.279L517.536 60.9744H512.939L509.269 47.8555H513.935L515.679 55.9688H515.724L517.219 47.8555H521.408L522.972 55.9688H523.062L524.692 47.8555H529.358L525.621 60.9744" fill="#9C9C9C"/>
<path fill-rule="evenodd" clip-rule="evenodd" d="M532.607 55.5403C532.719 57.0302 533.489 58.0926 534.894 58.0926C535.617 58.0926 536.41 57.7892 536.773 57.1572H540.962C540.057 59.9876 537.588 61.303 534.916 61.303C531.157 61.303 528.325 58.8254 528.325 54.4528C528.325 50.6365 530.816 47.5279 534.531 47.5279C539.196 47.5279 541.212 50.4339 541.212 55.5403H532.607V55.5403ZM536.909 52.9367C536.909 51.7231 536.093 50.7364 534.939 50.7364C533.602 50.7364 532.833 51.5215 532.629 52.9367H536.909Z" fill="#9C9C9C"/>
<path fill-rule="evenodd" clip-rule="evenodd" d="M546.238 55.5403C546.351 57.0302 547.12 58.0926 548.526 58.0926C549.25 58.0926 550.042 57.7892 550.404 57.1572H554.594C553.689 59.9876 551.221 61.303 548.547 61.303C544.789 61.303 541.958 58.8254 541.958 54.4528C541.958 50.6365 544.449 47.5279 548.162 47.5279C552.828 47.5279 554.844 50.4339 554.844 55.5403H546.238V55.5403ZM550.541 52.9367C550.541 51.7231 549.725 50.7364 548.57 50.7364C547.234 50.7364 546.464 51.5215 546.261 52.9367H550.541Z" fill="#9C9C9C"/>
<path fill-rule="evenodd" clip-rule="evenodd" d="M555.664 42.9265H560.148V51.6475L563.002 47.8555H568.075L563.886 52.8098L568.732 60.9744H563.342L560.941 56.2218L560.148 57.1824V60.9744H555.664V42.9265" fill="#9C9C9C"/>
</g>
</g>
<g clip-path="url(#clip4_1_26)">
<g clip-path="url(#clip5_1_26)">
<path fill-rule="evenodd" clip-rule="evenodd" d="M766.787 26.2504C767.137 26.2504 767.483 26.2389 767.483 25.8471C767.483 25.5252 767.212 25.4496 766.931 25.4496H766.409V26.2504H766.787V26.2504ZM766.409 27.5175H766.124V25.209H767.012C767.535 25.209 767.768 25.4336 767.768 25.8471C767.768 26.255 767.497 26.4383 767.186 26.491L767.875 27.5175H767.542L766.889 26.491H766.407V27.5175H766.409ZM765.16 26.3615C765.16 27.3181 765.882 28.0754 766.852 28.0754C767.82 28.0754 768.542 27.3193 768.542 26.3615C768.542 25.4072 767.82 24.6499 766.852 24.6499C765.88 24.6499 765.161 25.4061 765.161 26.3615H765.16ZM768.856 26.3615C768.856 27.4842 767.985 28.3606 766.851 28.3606C766.587 28.3646 766.325 28.3157 766.08 28.2167C765.836 28.1178 765.613 27.9707 765.426 27.7844C765.239 27.598 765.092 27.3761 764.992 27.1317C764.892 26.8873 764.843 26.6254 764.846 26.3615C764.846 25.2411 765.719 24.3647 766.851 24.3647C767.985 24.3647 768.856 25.2411 768.856 26.3615Z" fill="#9C9C9C"/>
<path fill-rule="evenodd" clip-rule="evenodd" d="M652.716 60.7522H689.319V24.2971H652.716V60.7522V60.7522ZM689.319 60.7522H725.92V24.2971H689.319V60.7522V60.7522ZM725.844 60.7522H762.447V24.2971H725.844V60.7522V60.7522Z" stroke="#9C9C9C" stroke-width="1.53973"/>
<path fill-rule="evenodd" clip-rule="evenodd" d="M674.574 51.8232V41.0669C674.574 39.479 674.267 38.3208 673.653 37.5887C673.04 36.8612 672.037 36.4946 670.646 36.4946C670.005 36.4946 669.317 36.6745 668.588 37.0331C667.858 37.3917 667.287 37.8408 666.877 38.3712V51.8232H662.503V33.1357H665.657L666.463 34.8782C667.654 33.5057 669.411 32.8195 671.734 32.8195C673.961 32.8195 675.724 33.4839 677.014 34.8163C678.303 36.1429 678.95 38.0011 678.95 40.3783V51.8232H674.574" fill="#9C9C9C"/>
<path fill-rule="evenodd" clip-rule="evenodd" d="M707.273 52.1921C710.134 52.1921 712.39 51.3672 714.045 49.7152C715.697 48.0667 716.522 45.709 716.522 42.6558C716.522 36.0994 713.534 32.8195 707.554 32.8195C705.952 32.8195 704.603 33.3442 703.507 34.389V33.1357H699.129V59.1209H703.507V51.3707C704.64 51.916 705.893 52.1921 707.272 52.1921H707.273ZM706.3 36.5462C708.312 36.5462 709.757 36.9964 710.63 37.8957C711.501 38.7951 711.936 40.3451 711.936 42.5504C711.936 44.6126 711.497 46.1248 710.621 47.0826C709.741 48.0369 708.295 48.5169 706.282 48.5169C705.223 48.5169 704.297 48.1984 703.507 47.5591V37.764C704.32 36.9552 705.251 36.5462 706.3 36.5462V36.5462Z" fill="#9C9C9C"/>
<path fill-rule="evenodd" clip-rule="evenodd" d="M749.064 37.2301C748.298 36.7434 747.408 36.488 746.501 36.4946C745.493 36.4946 744.595 36.9529 743.81 37.8683C743.025 38.7848 742.636 39.9017 742.636 41.2227V51.8232H738.259V33.1357H742.636V34.9205C743.856 33.5194 745.474 32.8195 747.496 32.8195C748.981 32.8195 750.12 33.0474 750.91 33.5L749.063 37.2301" fill="#9C9C9C"/>
</g>
</g>
<g clip-path="url(#clip6_1_26)">
<g clip-path="url(#clip7_1_26)">
<path fill-rule="evenodd" clip-rule="evenodd" d="M928.469 58.4193V55.1409H930.208C931.621 55.2262 932.327 55.8177 932.327 56.9194C932.327 57.4346 932.11 57.8116 931.676 58.0496C931.249 58.2966 930.76 58.4193 930.208 58.4193H928.47M928.47 52.9008V49.8881H929.936C930.339 49.8881 930.678 50.0262 930.954 50.3041C931.262 50.5576 931.427 50.8728 931.451 51.2506C931.451 51.704 931.313 52.0932 931.036 52.4166C930.768 52.7399 930.418 52.9008 929.984 52.9008H928.468M931.45 47.4863H925.439V61.0981H931.45C932.555 61.0136 933.458 60.5781 934.16 59.7933C934.877 59.0003 935.236 58.0586 935.236 56.9649C935.149 55.3481 934.345 54.2325 932.823 53.6174C933.911 52.9471 934.455 51.9112 934.455 50.5121C934.384 49.6882 934.074 48.9992 933.521 48.4451C932.984 47.8982 932.294 47.5789 931.45 47.4863M912.661 46.8981V61.0981H915.667V53.9172L924.056 61.5369V47.4863H920.968V54.2057L912.662 46.8981M942.797 46.8981C941.491 46.9421 940.214 47.2942 939.07 47.9259C937.961 48.509 937.019 49.3677 936.337 50.4194C935.651 51.4578 935.284 52.6237 935.237 53.9172C935.237 55.3026 935.572 56.553 936.243 57.6694C936.882 58.7849 937.781 59.6779 938.94 60.3482C940.068 61.0177 941.323 61.4142 942.702 61.5369C942.845 61.5596 943.148 61.5718 943.614 61.5718C944.474 61.5718 945.345 61.4142 946.229 61.0981V57.7961C945.493 58.2253 944.666 58.4708 943.815 58.5119C943.373 58.5119 943.003 58.4811 942.702 58.4193C941.607 58.204 940.715 57.7076 940.029 56.9308C939.319 56.1533 938.964 55.2449 938.964 54.2057C938.964 53.0974 939.343 52.1395 940.1 51.3311C940.888 50.5307 941.851 50.0497 942.987 49.8881C943.507 49.8263 943.827 49.7954 943.945 49.7954C944.569 49.7954 945.329 50.0262 946.229 50.4885V47.4863C945.267 47.0947 944.123 46.8981 942.797 46.8981M913.94 36.3803C913.175 36.3803 912.469 36.5996 911.822 37.0384C911.593 37.1765 911.361 37.3617 911.124 37.5925C910.377 38.3595 910.003 39.2784 910 40.3501V40.3761C910.003 41.4405 910.377 42.3529 911.124 43.111C911.48 43.4425 911.842 43.696 912.212 43.8731C912.744 44.155 913.338 44.3018 913.94 44.3005H927.357L916.957 37.4658C916.727 37.3198 916.494 37.1773 916.259 37.0384C916.011 36.8776 915.75 36.7387 915.478 36.6232C915.045 36.4607 914.531 36.3803 913.94 36.3803M944.62 36.3803C944.028 36.3803 943.519 36.4615 943.094 36.6232C942.816 36.7335 942.55 36.8727 942.3 37.0384C942.269 37.0546 942.036 37.196 941.603 37.4658L931.203 44.3005H944.62C945.424 44.3005 946.177 44.0543 946.879 43.5611C947.073 43.4215 947.258 43.2712 947.435 43.111L947.542 42.9956C947.967 42.5499 948.276 42.0067 948.442 41.4137C948.504 41.1911 948.539 41.0058 948.547 40.8596C948.564 40.7515 948.572 40.5866 948.572 40.3639C948.572 39.4702 948.323 38.7007 947.826 38.0548C947.709 37.89 947.579 37.7353 947.436 37.5925C947.217 37.3802 946.975 37.1943 946.713 37.0384C946.493 36.8694 946.198 36.715 945.827 36.5769C945.438 36.4481 945.03 36.3817 944.62 36.3803M917.499 28.1106C917.203 28.1106 916.897 28.1391 916.578 28.1959C915.924 28.3267 915.371 28.5697 914.921 28.9231C914.717 29.0921 914.539 29.2619 914.389 29.4309C914.283 29.5593 914.181 29.6905 914.082 29.8242C913.822 30.1858 913.637 30.5433 913.526 30.8975C913.336 31.4825 913.305 32.0976 913.431 32.7443C913.558 33.3293 913.746 33.8184 914 34.2109C914.267 34.6334 914.618 34.9844 915.052 35.2614L926.766 43.0777L921.322 30.8983C921.11 30.3824 920.916 29.9964 920.744 29.7429L920.484 29.4309C920.311 29.2436 920.121 29.0736 919.915 28.9231C919.806 28.8634 919.704 28.7938 919.608 28.7151C918.988 28.3121 918.284 28.1106 917.499 28.1106M941.05 28.1106C940.265 28.1106 939.565 28.3129 938.953 28.7151C938.81 28.8077 938.708 28.8776 938.644 28.9231C938.446 29.0786 938.261 29.2483 938.088 29.4309C937.995 29.5295 937.908 29.6337 937.828 29.7429C937.592 30.0964 937.339 30.605 937.071 31.2664L931.794 43.0769L943.495 35.2606C943.918 34.9868 944.281 34.6296 944.56 34.2109L944.62 34.1069C944.746 33.907 944.864 33.6413 944.975 33.3106C945.046 33.1107 945.097 32.9223 945.128 32.7443C945.187 32.4517 945.215 32.1538 945.211 31.8554C945.18 31.1478 944.939 30.4701 944.489 29.8242C944.39 29.6905 944.288 29.5593 944.182 29.4309C943.614 28.7696 942.83 28.3318 941.969 28.1959C941.666 28.1406 941.358 28.112 941.05 28.1106M924.905 23H924.881C924.546 23.002 924.213 23.0485 923.89 23.1381C923.661 23.2034 923.436 23.2807 923.215 23.3697C922.191 23.8158 921.489 24.5234 921.11 25.4936L921.051 25.6552C920.696 26.6709 920.723 27.6215 921.134 28.5071L926.86 41.3674L928.765 28.3804C928.883 27.6491 928.931 27.0983 928.907 26.7294C928.899 26.4206 928.824 26.0631 928.682 25.6552C928.633 25.5251 928.585 25.3942 928.54 25.2628C928.115 24.3325 927.349 23.6581 926.245 23.2421C926.132 23.1927 926.012 23.1578 925.89 23.1381C925.57 23.0484 925.239 23.0019 924.906 23M933.679 23H933.653C933.321 23.0019 932.99 23.0483 932.67 23.1381C932.545 23.1609 932.421 23.1958 932.302 23.2421C931.214 23.6581 930.453 24.3309 930.019 25.2628L929.853 25.6552C929.66 26.1986 929.596 26.7792 929.664 27.3517V27.433H930.753C931.084 27.4566 931.277 27.5061 931.332 27.5833C931.412 27.6597 931.265 27.7799 930.895 27.9408L930.279 28.3796C930.161 28.4795 930.067 28.6607 929.995 28.9223C929.965 29.0898 929.957 29.2606 929.971 29.4301L929.984 29.6617L931.687 41.3674L937.438 28.5063C937.84 27.6223 937.863 26.6717 937.509 25.6544L937.438 25.4936C937.051 24.5316 936.353 23.8239 935.343 23.3697C935.123 23.2806 934.898 23.2033 934.669 23.1381C934.347 23.0486 934.014 23.0022 933.679 23" fill="#9C9C9C"/>
</g>
</g>
<defs>
<clipPath id="clip0_1_26">
<rect width="106" height="39" fill="white" transform="translate(217 23)"/>
</clipPath>
<clipPath id="clip1_1_26">
<rect width="106" height="36.3429" fill="white" transform="translate(217 24.3286)"/>
</clipPath>
<clipPath id="clip2_1_26">
<rect width="158" height="39" fill="white" transform="translate(411 23)"/>
</clipPath>
<clipPath id="clip3_1_26">
<rect width="158" height="38.773" fill="white" transform="translate(411 23.1135)"/>
</clipPath>
<clipPath id="clip4_1_26">
<rect width="118" height="39" fill="white" transform="translate(651 23)"/>
</clipPath>
<clipPath id="clip5_1_26">
<rect width="118" height="38.9515" fill="white" transform="translate(651 23.0243)"/>
</clipPath>
<clipPath id="clip6_1_26">
<rect width="39" height="39" fill="white" transform="translate(910 23)"/>
</clipPath>
<clipPath id="clip7_1_26">
<rect width="39" height="39" fill="white" transform="translate(910 23)"/>
</clipPath>
</defs>
</svg>
