<svg width="301" height="113" viewBox="0 0 301 113" fill="none" xmlns="http://www.w3.org/2000/svg">
<rect x="94.8813" y="1.0896" width="111" height="111" rx="55.5" fill="#EDFAF9"/>
<g clip-path="url(#clip0_2_949)">
<g clip-path="url(#clip1_2_949)">
<path d="M174.354 50.8236L173.199 49.6006L169.145 38.6721C168.454 36.8262 166.687 35.6031 164.717 35.5918H135.759C133.789 35.5918 132.022 36.8262 131.331 38.6721L127.334 49.4647L125.669 51.0048C124.219 52.2392 123.381 54.0512 123.381 55.9538V71.8764C123.393 74.4811 125.51 76.5875 128.115 76.5875H131.105C133.71 76.5875 135.827 74.4811 135.839 71.8764V69.5662H163.924V71.8764C163.935 74.4811 166.053 76.5875 168.658 76.5875H171.648C174.252 76.5875 176.37 74.4811 176.381 71.8764V55.5347C176.37 53.7568 175.645 52.058 174.354 50.8236ZM133.46 39.4422C133.823 38.4796 134.74 37.8568 135.759 37.8568H164.728C165.747 37.8568 166.665 38.4909 167.027 39.4422L170.56 48.955H167.922C167.299 44.7082 163.347 41.7751 159.1 42.4093C155.714 42.9076 153.052 45.5689 152.554 48.955H129.927L133.46 39.4422ZM165.611 48.955H154.842C155.464 45.9766 158.386 44.0741 161.365 44.6969C163.494 45.1499 165.158 46.8147 165.611 48.955ZM133.574 71.8764C133.562 73.2354 132.464 74.3226 131.105 74.3226H128.115C126.756 74.3226 125.658 73.2354 125.646 71.8764V68.9093C126.326 69.351 127.22 69.5662 128.115 69.5662H133.574V71.8764ZM174.116 71.8764C174.105 73.2354 173.007 74.3226 171.648 74.3226H168.658C167.299 74.3226 166.2 73.2241 166.189 71.8764V69.5662H171.648C172.542 69.5662 173.437 69.351 174.116 68.9093V71.8764ZM171.648 67.3012H128.115C126.767 67.3125 125.658 66.2367 125.646 64.8777V55.9538C125.646 54.708 126.201 53.5189 127.153 52.7149C127.164 52.7035 127.186 52.6809 127.198 52.6696L128.738 51.22H171.625L172.712 52.3865C172.723 52.4091 172.757 52.4204 172.769 52.4431C173.618 53.2471 174.105 54.3683 174.105 55.5347V64.8777H174.116C174.105 66.2253 172.995 67.3125 171.648 67.3012Z" fill="#21E4C1"/>
<path d="M138.33 55.75H129.837C129.214 55.75 128.704 56.2596 128.704 56.8825V62.7714C128.704 63.3942 129.214 63.9038 129.837 63.9038H138.33C138.953 63.9038 139.463 63.3942 139.463 62.7714V56.8825C139.463 56.2596 138.953 55.75 138.33 55.75ZM137.198 61.6389H130.969V58.015H137.198V61.6389Z" fill="#21E4C1"/>
<path d="M169.926 55.75H161.433C160.81 55.75 160.3 56.2596 160.3 56.8825V62.7714C160.3 63.3942 160.81 63.9038 161.433 63.9038H169.926C170.549 63.9038 171.059 63.3942 171.059 62.7714V56.8825C171.059 56.2596 170.549 55.75 169.926 55.75ZM168.794 61.6389H162.565V58.015H168.794V61.6389Z" fill="#21E4C1"/>
<path d="M155.351 60.5063H144.411C143.788 60.5063 143.279 61.016 143.279 61.6388C143.279 62.2617 143.788 62.7713 144.411 62.7713H155.351C155.974 62.7713 156.484 62.2617 156.484 61.6388C156.484 61.016 155.974 60.5063 155.351 60.5063Z" fill="#21E4C1"/>
<path d="M155.351 56.9956H144.411C143.788 56.9956 143.279 57.5052 143.279 58.1281C143.279 58.7509 143.788 59.2606 144.411 59.2606H155.351C155.974 59.2606 156.484 58.7509 156.484 58.1281C156.484 57.5052 155.974 56.9956 155.351 56.9956Z" fill="#21E4C1"/>
</g>
</g>
<rect x="94.8813" y="1.0896" width="111" height="111" rx="55.5" stroke="#DFF2F2"/>
<defs>
<clipPath id="clip0_2_949">
<rect width="53" height="53" fill="white" transform="translate(123.381 29.5896)"/>
</clipPath>
<clipPath id="clip1_2_949">
<rect width="53" height="53" fill="white" transform="translate(123.381 29.5896)"/>
</clipPath>
</defs>
</svg>
