<svg width="301" height="113" viewBox="0 0 301 113" fill="none" xmlns="http://www.w3.org/2000/svg">
<rect x="94.8813" y="1.0896" width="111" height="111" rx="55.5" fill="#EDFAF9"/>
<g clip-path="url(#clip0_2_936)">
<g clip-path="url(#clip1_2_936)">
<path d="M175.926 53.7735L168.042 46.4535V34.4614H158.962V38.022L149.881 29.5896L123.837 53.7735C123.47 54.115 123.449 54.6898 123.79 55.0576C124.131 55.4244 124.705 55.4453 125.074 55.1048L128.088 52.3061V82.5896H142.617H157.146H171.676V52.3052L174.69 55.1039C174.864 55.2664 175.086 55.3463 175.308 55.3463C175.552 55.3463 175.795 55.2492 175.973 55.0567C176.314 54.6898 176.292 54.115 175.926 53.7735ZM160.778 36.2776H166.226V44.7672L160.778 39.7083V36.2776ZM144.432 80.7734V61.6466C144.432 61.1771 144.814 60.7957 145.283 60.7957H154.479C154.948 60.7957 155.329 61.1771 155.329 61.6466V80.7734H144.432V80.7734ZM169.859 80.7734H157.146V61.6466C157.146 60.1755 155.95 58.9796 154.479 58.9796H145.283C143.812 58.9796 142.616 60.1755 142.616 61.6466V80.7734H129.903V50.6189L149.881 32.0677L162.848 44.1089L168.042 48.9317L169.859 50.618V80.7734V80.7734Z" fill="#21E4C1"/>
</g>
</g>
<rect x="94.8813" y="1.0896" width="111" height="111" rx="55.5" stroke="#DFF2F2"/>
<defs>
<clipPath id="clip0_2_936">
<rect width="53" height="53" fill="white" transform="translate(123.381 29.5896)"/>
</clipPath>
<clipPath id="clip1_2_936">
<rect width="53" height="53" fill="white" transform="translate(123.381 29.5896)"/>
</clipPath>
</defs>
</svg>
