<svg width="301" height="113" viewBox="0 0 301 113" fill="none" xmlns="http://www.w3.org/2000/svg">
<rect x="94.8813" y="1.0896" width="111" height="111" rx="55.5" fill="#EDFAF9"/>
<g clip-path="url(#clip0_2_976)">
<g clip-path="url(#clip1_2_976)">
<path d="M151.639 64.4787H165.768C166.298 64.4787 166.651 64.1255 166.651 63.5957V55.6482C166.651 55.1183 166.298 54.7651 165.768 54.7651H151.639C151.11 54.7651 150.756 55.1183 150.756 55.6482V63.5957C150.756 64.1254 151.11 64.4787 151.639 64.4787ZM152.522 56.5312H164.885V62.7125H152.522V56.5312Z" fill="#21E4C1"/>
<path d="M127.797 52.999H134.861C135.391 52.999 135.744 52.6458 135.744 52.1159C135.744 51.5861 135.391 51.2329 134.861 51.2329H127.797C127.267 51.2329 126.914 51.5861 126.914 52.1159C126.914 52.6458 127.267 52.999 127.797 52.999Z" fill="#21E4C1"/>
<path d="M138.393 52.999H145.458C145.988 52.999 146.341 52.6458 146.341 52.1159C146.341 51.5861 145.988 51.2329 145.458 51.2329H138.393C137.863 51.2329 137.51 51.5861 137.51 52.1159C137.51 52.6458 137.863 52.999 138.393 52.999Z" fill="#21E4C1"/>
<path d="M127.797 56.5312H139.276C139.806 56.5312 140.159 56.178 140.159 55.6482C140.159 55.1183 139.806 54.7651 139.276 54.7651H127.797C127.267 54.7651 126.914 55.1183 126.914 55.6482C126.914 56.178 127.267 56.5312 127.797 56.5312Z" fill="#21E4C1"/>
<path d="M145.458 54.7651H142.809C142.279 54.7651 141.926 55.1183 141.926 55.6482C141.926 56.178 142.279 56.5312 142.809 56.5312H145.458C145.988 56.5312 146.341 56.178 146.341 55.6482C146.341 55.1183 145.988 54.7651 145.458 54.7651Z" fill="#21E4C1"/>
<path d="M175.57 43.8152C174.952 43.0205 174.157 42.5789 173.186 42.4906L171.066 42.2338V39.7531V37.987C171.066 36.0443 169.477 34.4548 167.534 34.4548H126.914C124.971 34.4547 123.381 36.0442 123.381 37.987V39.7532V46.8177V66.2449C123.381 67.8399 124.453 69.196 125.912 69.6307C125.867 71.417 127.219 72.9678 129.033 73.1327L169.83 77.7246C169.919 77.7246 170.095 77.7246 170.183 77.7246C171.95 77.7246 173.539 76.4 173.716 74.7223L176.365 46.3761C176.453 45.493 176.188 44.5216 175.57 43.8152ZM125.147 40.6362H169.3V42.9322V45.9345H125.147V40.6362ZM126.914 36.2209H167.534C168.506 36.2209 169.3 37.0156 169.3 37.987V38.8701H125.147V37.987C125.147 37.0156 125.942 36.2209 126.914 36.2209ZM125.147 66.2448V47.7006H169.3V66.2448C169.3 67.2162 168.506 68.0109 167.534 68.0109H127.002H126.914C125.942 68.0109 125.147 67.2162 125.147 66.2448ZM174.599 46.0228L171.949 74.369C171.861 75.3404 170.978 76.0467 170.007 75.9585L129.298 71.3666C128.415 71.2783 127.797 70.5718 127.708 69.7771H167.534C169.477 69.7771 171.066 68.1876 171.066 66.2449V46.8176V43.9035L173.097 44.0801C173.539 44.0801 173.98 44.345 174.245 44.6982C174.51 45.0514 174.687 45.5813 174.599 46.0228Z" fill="#21E4C1"/>
</g>
</g>
<rect x="94.8813" y="1.0896" width="111" height="111" rx="55.5" stroke="#DFF2F2"/>
<defs>
<clipPath id="clip0_2_976">
<rect width="53" height="53" fill="white" transform="translate(123.381 29.5896)"/>
</clipPath>
<clipPath id="clip1_2_976">
<rect width="53" height="53" fill="white" transform="translate(123.381 29.5896)"/>
</clipPath>
</defs>
</svg>
