<svg width="300" height="113" viewBox="0 0 300 113" fill="none" xmlns="http://www.w3.org/2000/svg">
<rect x="94.5" y="1.28125" width="111" height="111" rx="55.5" fill="#EDFAF9"/>
<g clip-path="url(#clip0_2_535)">
<g clip-path="url(#clip1_2_535)">
<path d="M174.753 70.6533L167.123 63.0235C168.93 59.4696 168.952 55.234 167.187 51.6643V33.4548C167.187 31.5147 165.608 29.9365 163.668 29.9365H136.142C134.202 29.9365 132.624 31.5147 132.624 33.4548V36.5595H126.415C124.475 36.5595 122.896 38.1377 122.896 40.0778V79.4008C122.896 81.3409 124.475 82.9191 126.415 82.9191H157.046C158.986 82.9191 160.564 81.3409 160.564 79.4008V76.2966H163.668C165.198 76.2966 166.501 75.3156 166.985 73.9505L169.22 76.1854C169.959 76.9245 170.941 77.3313 171.986 77.3313C173.031 77.3313 174.014 76.9241 174.753 76.1854C176.278 74.6601 176.278 72.1786 174.753 70.6533V70.6533ZM134.694 33.4548C134.694 32.6558 135.343 32.006 136.142 32.006H163.668C164.467 32.006 165.117 32.6558 165.117 33.4548V48.6696C165.012 48.5564 164.905 48.4444 164.795 48.334C163.549 47.0882 162.105 46.1573 160.564 45.5407V40.0778C160.564 38.1377 158.986 36.5595 157.046 36.5595H134.694V33.4548ZM134.641 36.5595H134.627C134.632 36.5462 134.637 36.5474 134.641 36.5595ZM132.69 36.5595H132.677C132.681 36.5482 132.686 36.5466 132.69 36.5595ZM158.494 79.4008C158.494 80.1998 157.844 80.8496 157.046 80.8496H126.415C125.616 80.8496 124.966 80.1998 124.966 79.4008V40.0778C124.966 39.2788 125.616 38.629 126.415 38.629H157.046C157.844 38.629 158.494 39.2788 158.494 40.0778V44.9123C154.441 44.0518 150.043 45.1917 146.901 48.334C146.02 49.2155 145.296 50.1961 144.73 51.2401H129.519C128.948 51.2401 128.485 51.7031 128.485 52.2749C128.485 52.8462 128.948 53.3096 129.519 53.3096H143.837C143.264 55.0528 143.078 56.8963 143.281 58.7046H129.519C128.948 58.7046 128.485 59.168 128.485 59.7393C128.485 60.3107 128.948 60.7741 129.519 60.7741H143.69C144.26 62.7724 145.33 64.6571 146.901 66.2281C149.368 68.6946 152.608 69.9279 155.848 69.9279C156.735 69.9279 157.623 69.8345 158.494 69.6497V79.4008ZM148.365 64.7643C144.238 60.6378 144.238 53.9238 148.365 49.7974C150.428 47.7343 153.138 46.7028 155.848 46.7028C158.558 46.7028 161.268 47.7343 163.331 49.7974C167.458 53.9238 167.458 60.6382 163.331 64.7643C159.205 68.8907 152.491 68.8907 148.365 64.7643V64.7643ZM165.117 72.7782C165.117 73.5769 164.467 74.2267 163.668 74.2267H160.564V69.0214C160.911 68.8823 161.254 68.727 161.59 68.5559L165.117 72.0823V72.7782ZM173.289 74.722C172.941 75.0701 172.478 75.2618 171.986 75.2618C171.494 75.2618 171.032 75.0701 170.684 74.722L163.397 67.4355C163.885 67.0723 164.352 66.6704 164.795 66.2281C165.237 65.7857 165.64 65.3178 166.003 64.8302L173.289 72.1167C174.007 72.8349 174.007 74.0039 173.289 74.722V74.722Z" fill="#21E4C1"/>
<path d="M159.833 51.5566C159.429 51.1527 158.773 51.1527 158.369 51.5566L154.741 55.1845L153.327 53.7701C152.923 53.3661 152.267 53.3661 151.864 53.7701L149.051 56.5824C148.857 56.7765 148.748 57.0397 148.748 57.3143C148.748 57.5888 148.857 57.8517 149.051 58.0462L154.01 63.0048C154.204 63.1989 154.467 63.3081 154.741 63.3081C155.016 63.3081 155.279 63.1989 155.473 63.0048L162.645 55.8327C162.839 55.6386 162.948 55.3754 162.948 55.1012C162.948 54.8267 162.839 54.5634 162.645 54.3693L159.833 51.5566ZM154.741 60.81L151.246 57.3143L152.595 55.9653L154.01 57.3798C154.414 57.7837 155.069 57.7837 155.473 57.3798L159.101 53.7519L160.45 55.1012L154.741 60.81Z" fill="#21E4C1"/>
<path d="M129.519 68.2111H143.999C144.57 68.2111 145.033 67.7477 145.033 67.1764C145.033 66.605 144.57 66.1416 143.999 66.1416H129.519C128.948 66.1416 128.485 66.605 128.485 67.1764C128.485 67.7477 128.948 68.2111 129.519 68.2111V68.2111Z" fill="#21E4C1"/>
<path d="M149.401 73.606C149.129 73.606 148.862 73.7168 148.67 73.9092C148.476 74.1017 148.367 74.3686 148.367 74.6407C148.367 74.9128 148.476 75.1797 148.67 75.3722C148.862 75.5647 149.128 75.6755 149.401 75.6755C149.674 75.6755 149.94 75.5647 150.133 75.3722C150.325 75.1797 150.436 74.9128 150.436 74.6407C150.436 74.3686 150.325 74.1017 150.133 73.9092C149.94 73.7168 149.674 73.606 149.401 73.606Z" fill="#21E4C1"/>
<path d="M145.242 73.606H129.519C128.948 73.606 128.485 74.0694 128.485 74.6407C128.485 75.2121 128.948 75.6755 129.519 75.6755H145.242C145.814 75.6755 146.277 75.2121 146.277 74.6407C146.277 74.0694 145.814 73.606 145.242 73.606V73.606Z" fill="#21E4C1"/>
<path d="M129.519 45.8727H145.215C145.787 45.8727 146.25 45.4093 146.25 44.838C146.25 44.2666 145.787 43.8032 145.215 43.8032H129.519C128.948 43.8032 128.485 44.2666 128.485 44.838C128.485 45.4093 128.948 45.8727 129.519 45.8727Z" fill="#21E4C1"/>
</g>
</g>
<rect x="94.5" y="1.28125" width="111" height="111" rx="55.5" stroke="#DFF2F2"/>
<defs>
<clipPath id="clip0_2_535">
<rect width="53" height="53" fill="white" transform="translate(123 29.7812)"/>
</clipPath>
<clipPath id="clip1_2_535">
<rect width="53" height="53" fill="white" transform="translate(123 29.833)"/>
</clipPath>
</defs>
</svg>
